<?xml version="1.0" encoding="utf-8"?>
<!-- Generator: Adobe Illustrator 16.0.4, SVG Export Plug-In . SVG Version: 6.00 Build 0)  -->
<!DOCTYPE svg PUBLIC "-//W3C//DTD SVG 1.1//EN" "http://www.w3.org/Graphics/SVG/1.1/DTD/svg11.dtd">
<svg version="1.1" id="图层_1" xmlns="http://www.w3.org/2000/svg" xmlns:xlink="http://www.w3.org/1999/xlink" x="0px" y="0px"
	 width="100px" height="100px" viewBox="0 0 100 100" enable-background="new 0 0 100 100" xml:space="preserve">
<g>
	<circle fill="#1AA268" cx="50" cy="50" r="49.5"/>
	<path fill="#FFFFFF" d="M49.621,30.592v0.04h-0.414c-10.109,0-18.357,8.223-18.357,18.33v0.777v19.15h19.529v-0.03h0.401
		c10.109,0,18.369-8.225,18.369-18.331v-0.42h0.001V30.592H49.621z M64.361,50.528c0,7.506-6.074,13.611-13.581,13.611h-0.401
		v-0.037h-14.74V49.373v-0.411c0-7.505,6.062-13.61,13.568-13.61h0.414v0.027h14.74v14.729V50.528z M57.438,39.03l-0.201,0.043
		c-0.83,0.22-6.445,1.77-11.736,7.08V43.53c0-1.017-0.832-1.848-1.849-1.848h-0.045c-1.017,0-1.85,0.831-1.85,1.848v6.517
		c0,0.199,0.032,0.387,0.09,0.568c-1.125,1.681-2.169,3.597-3.063,5.773c-0.037,0.089-0.174,0.411-0.235,0.682l-0.018,0.108
		c-0.103,0.918-0.404,2.727,2.361,2.683c0.643-0.01,1.671-1.56,1.956-2.109c0.646-1.26,1.3-2.417,1.957-3.481
		c0.292,0.172,0.632,0.271,0.994,0.271h9.13c1.081,0,1.963-0.885,1.963-1.962c0-1.08-0.882-1.963-1.963-1.963H47.36
		c2.82-3.522,5.796-5.642,9.137-7.043c1.19-0.496,3.226-1.418,3.588-2.604C60.501,39.623,60.241,38.617,57.438,39.03z"/>
</g>
</svg>
