<?xml version="1.0" encoding="utf-8"?>
<!-- Generator: Adobe Illustrator 16.0.4, SVG Export Plug-In . SVG Version: 6.00 Build 0)  -->
<!DOCTYPE svg PUBLIC "-//W3C//DTD SVG 1.1//EN" "http://www.w3.org/Graphics/SVG/1.1/DTD/svg11.dtd">
<svg version="1.1" id="图层_1" xmlns="http://www.w3.org/2000/svg" xmlns:xlink="http://www.w3.org/1999/xlink" x="0px" y="0px"
	 width="100px" height="100px" viewBox="0 0 100 100" enable-background="new 0 0 100 100" xml:space="preserve">
<g>
	<circle fill="#ED793D" cx="50" cy="50" r="49.5"/>
	<g>
		<path fill="#FFFFFF" d="M63.305,50.053c0,7.32-5.933,13.254-13.247,13.254c-7.315,0-13.248-5.934-13.248-13.254
			c0-7.315,5.933-13.246,13.248-13.246C57.372,36.807,63.305,42.737,63.305,50.053L63.305,50.053z M50.058,30.954
			c-10.551,0-19.109,8.553-19.109,19.104c0,10.552,8.559,19.104,19.109,19.104c10.55,0,19.104-8.553,19.104-19.104
			C69.162,39.507,60.607,30.954,50.058,30.954L50.058,30.954z M53.729,24.22c0,2.018-1.636,3.658-3.653,3.658
			c-2.019,0-3.658-1.64-3.658-3.658c0-2.023,1.64-3.658,3.658-3.658C52.093,20.562,53.729,22.196,53.729,24.22L53.729,24.22z
			 M28.256,31.772c0-0.925,0.383-1.85,1.035-2.502c0.657-0.658,1.578-1.041,2.508-1.041c0.926,0,1.849,0.383,2.505,1.041
			c0.657,0.652,1.04,1.577,1.04,2.502c0,0.93-0.383,1.852-1.04,2.509c-0.656,0.656-1.579,1.035-2.505,1.035
			c-0.93,0-1.851-0.379-2.508-1.035C28.639,33.624,28.256,32.702,28.256,31.772L28.256,31.772z M24.219,46.492
			c2.023,0,3.654,1.587,3.654,3.548c0,1.953-1.636,3.539-3.654,3.539s-3.655-1.586-3.655-3.539
			C20.563,48.079,22.201,46.492,24.219,46.492L24.219,46.492z M29.27,65.804c1.382-1.379,3.627-1.379,5.016,0
			c1.383,1.385,1.383,3.632,0,5.021c-1.387,1.379-3.632,1.379-5.016,0C27.881,69.436,27.881,67.188,29.27,65.804L29.27,65.804z
			 M46.496,75.897c0-1.958,1.582-3.544,3.543-3.544c1.952,0,3.541,1.586,3.541,3.544c0,1.956-1.589,3.543-3.541,3.543
			C48.078,79.44,46.496,77.854,46.496,75.897L46.496,75.897z M65.729,70.841c-1.43-1.379-1.43-3.622,0-5.006
			c1.424-1.388,3.741-1.388,5.175,0c1.428,1.381,1.428,3.627,0,5.006C69.47,72.229,67.156,72.229,65.729,70.841L65.729,70.841z
			 M75.896,53.624c-1.956,0-3.543-1.592-3.543-3.548c0-1.957,1.587-3.544,3.543-3.544s3.543,1.587,3.543,3.544
			C79.438,52.032,77.852,53.624,75.896,53.624L75.896,53.624z M70.841,34.308c-1.378,1.379-3.622,1.379-5.006,0
			c-1.39-1.385-1.39-3.627,0-5.017c1.382-1.382,3.627-1.382,5.006,0C72.229,30.68,72.229,32.923,70.841,34.308L70.841,34.308z"/>
	</g>
</g>
</svg>
