<?xml version="1.0" encoding="utf-8"?>
<!-- Generator: Adobe Illustrator 16.0.4, SVG Export Plug-In . SVG Version: 6.00 Build 0)  -->
<!DOCTYPE svg PUBLIC "-//W3C//DTD SVG 1.1//EN" "http://www.w3.org/Graphics/SVG/1.1/DTD/svg11.dtd">
<svg version="1.1" id="图层_1" xmlns="http://www.w3.org/2000/svg" xmlns:xlink="http://www.w3.org/1999/xlink" x="0px" y="0px"
	 width="100px" height="100px" viewBox="0 0 100 100" enable-background="new 0 0 100 100" xml:space="preserve">
<g>
	<path fill="#21A368" d="M98.196,50h-1.305c0,6.478-1.311,12.642-3.684,18.253c-3.558,8.411-9.506,15.577-16.99,20.632
		C68.73,93.942,59.716,96.894,50,96.894c-6.478,0-12.642-1.311-18.251-3.686c-8.413-3.558-15.576-9.506-20.633-16.992
		C6.06,68.732,3.108,59.718,3.108,50c0-6.478,1.313-12.643,3.685-18.252c3.559-8.413,9.506-15.576,16.991-20.633
		C31.27,6.059,40.284,3.108,50,3.108c6.479,0,12.644,1.312,18.253,3.685c8.413,3.558,15.575,9.505,20.632,16.99
		c5.056,7.485,8.007,16.5,8.007,26.217H98.196H99.5c0-6.831-1.385-13.346-3.891-19.269c-3.757-8.885-10.033-16.44-17.932-21.777
		C69.778,3.617,60.248,0.499,50,0.5c-6.83,0-13.345,1.385-19.268,3.891c-8.885,3.758-16.44,10.033-21.777,17.933
		C3.618,30.223,0.5,39.753,0.5,50c0,6.831,1.385,13.346,3.891,19.271c3.759,8.883,10.033,16.439,17.933,21.775
		C30.223,96.383,39.754,99.504,50,99.5c6.831,0,13.346-1.385,19.269-3.891c8.885-3.755,16.439-10.031,21.777-17.932
		C96.383,69.776,99.502,60.248,99.5,50H98.196z"/>
	<path fill="#21A368" d="M67.596,48.225c-1.768-1.081-22.396-13.776-23.443-14.39c-1.297-0.794-2.597,0.217-2.597,1.551v28.854
		c0,1.477,1.442,2.2,2.525,1.551c1.515-0.901,22.215-13.634,23.515-14.428C68.75,50.641,68.75,48.91,67.596,48.225z"/>
</g>
</svg>
