<?xml version="1.0" encoding="utf-8"?>
<!-- Generator: Adobe Illustrator 16.0.4, SVG Export Plug-In . SVG Version: 6.00 Build 0)  -->
<!DOCTYPE svg PUBLIC "-//W3C//DTD SVG 1.1//EN" "http://www.w3.org/Graphics/SVG/1.1/DTD/svg11.dtd">
<svg version="1.1" id="图层_1" xmlns="http://www.w3.org/2000/svg" xmlns:xlink="http://www.w3.org/1999/xlink" x="0px" y="0px"
	 width="100px" height="100px" viewBox="0 0 100 100" enable-background="new 0 0 100 100" xml:space="preserve">
<g>
	<path fill="#21A368" d="M97.918,50h-1.586c0,6.4-1.297,12.494-3.639,18.035c-3.516,8.311-9.392,15.39-16.787,20.387
		c-7.396,4.996-16.305,7.91-25.906,7.91c-6.398,0-12.489-1.297-18.031-3.639c-8.314-3.516-15.389-9.396-20.386-16.787
		C6.586,68.51,3.673,59.602,3.668,50c0-6.401,1.296-12.491,3.643-18.034c3.516-8.312,9.391-15.39,16.787-20.385
		C31.494,6.585,40.402,3.669,50,3.668c6.402,0.001,12.494,1.297,18.035,3.641c8.311,3.516,15.39,9.392,20.387,16.787
		c4.996,7.396,7.91,16.303,7.91,25.903H97.918H99.5c0-6.83-1.385-13.345-3.889-19.268c-3.758-8.886-10.033-16.44-17.935-21.777
		C69.779,3.618,60.248,0.5,50,0.5c-6.829,0-13.342,1.385-19.266,3.89c-8.886,3.758-16.44,10.034-21.779,17.933
		C3.62,30.222,0.5,39.754,0.5,50c0,6.829,1.384,13.346,3.894,19.27c3.757,8.887,10.033,16.44,17.93,21.775
		C30.225,96.385,39.756,99.5,50,99.5c6.834,0,13.346-1.385,19.27-3.889c8.887-3.758,16.44-10.033,21.775-17.935
		C96.385,69.779,99.5,60.248,99.5,50H97.918z"/>
	<path fill="#21A368" d="M62.01,35.683h-1.555c-0.73,0-1.323,0.593-1.323,1.325v10.707c-0.149-0.125-0.316-0.246-0.501-0.36
		L40.42,36.074c-2.065-1.279-3.753-0.34-3.753,2.089v23.711c0,2.431,1.67,3.34,3.709,2.021l18.299-11.819
		c0.167-0.107,0.316-0.222,0.457-0.338v11.256c0,0.73,0.593,1.323,1.323,1.323h1.555c0.734,0,1.328-0.593,1.328-1.323V37.008
		C63.338,36.275,62.744,35.683,62.01,35.683z"/>
</g>
</svg>
