<?xml version="1.0" encoding="utf-8"?>
<!-- Generator: Adobe Illustrator 16.0.0, SVG Export Plug-In . SVG Version: 6.00 Build 0)  -->
<!DOCTYPE svg PUBLIC "-//W3C//DTD SVG 1.1//EN" "http://www.w3.org/Graphics/SVG/1.1/DTD/svg11.dtd">
<svg version="1.1" id="图层_1" xmlns="http://www.w3.org/2000/svg" xmlns:xlink="http://www.w3.org/1999/xlink" x="0px" y="0px"
	 width="28.347px" height="28.347px" viewBox="0 0 28.347 28.347" enable-background="new 0 0 28.347 28.347" xml:space="preserve">
<g>
	<path fill="#453A59" d="M14.173,2.986c-1.083,0-2.1,0.422-2.865,1.188c-0.766,0.765-1.187,1.782-1.187,2.864
		c0,1.083,0.421,2.1,1.187,2.865s1.783,1.187,2.865,1.187s2.1-0.421,2.866-1.187s1.187-1.782,1.187-2.865
		c0-1.082-0.421-2.1-1.187-2.864C16.273,3.408,15.256,2.986,14.173,2.986z M14.173,8.58c-0.851,0-1.542-0.689-1.542-1.542
		c0-0.851,0.691-1.542,1.542-1.542s1.542,0.691,1.542,1.542C15.715,7.891,15.024,8.58,14.173,8.58z"/>
	<path fill="#453A59" d="M20.676,0H7.671c-0.71,0-1.286,0.575-1.286,1.285v25.775c0,0.709,0.576,1.286,1.286,1.286h13.004
		c0.709,0,1.285-0.577,1.285-1.286V1.285C21.961,0.575,21.385,0,20.676,0z M11.211,24.821c-0.852,0-1.542-0.689-1.542-1.541
		s0.69-1.542,1.542-1.542c0.852,0,1.541,0.69,1.541,1.542S12.063,24.821,11.211,24.821z M11.211,18.448
		c-0.852,0-1.542-0.69-1.542-1.542s0.69-1.542,1.542-1.542c0.852,0,1.541,0.69,1.541,1.542S12.063,18.448,11.211,18.448z
		 M17.136,24.821c-0.852,0-1.542-0.689-1.542-1.541s0.69-1.542,1.542-1.542c0.853,0,1.542,0.69,1.542,1.542
		S17.988,24.821,17.136,24.821z M17.136,18.448c-0.852,0-1.542-0.69-1.542-1.542s0.69-1.542,1.542-1.542
		c0.853,0,1.542,0.69,1.542,1.542S17.988,18.448,17.136,18.448z M14.173,11.861c-2.664,0-4.823-2.159-4.823-4.823
		c0-2.663,2.159-4.822,4.823-4.822c2.663,0,4.823,2.159,4.823,4.822C18.996,9.702,16.836,11.861,14.173,11.861z"/>
</g>
</svg>
