<?xml version="1.0" encoding="utf-8"?>
<!-- Generator: Adobe Illustrator 16.0.0, SVG Export Plug-In . SVG Version: 6.00 Build 0)  -->
<!DOCTYPE svg PUBLIC "-//W3C//DTD SVG 1.1//EN" "http://www.w3.org/Graphics/SVG/1.1/DTD/svg11.dtd">
<svg version="1.1" id="图层_1" xmlns="http://www.w3.org/2000/svg" xmlns:xlink="http://www.w3.org/1999/xlink" x="0px" y="0px"
	 width="28.347px" height="28.347px" viewBox="0 0 28.347 28.347" enable-background="new 0 0 28.347 28.347" xml:space="preserve">
<g>
	<path fill="#453A59" d="M14.125,11.496c-0.203,0.813-0.425,1.595-0.658,2.368l-0.289,0.957h1.942l-0.28-0.957
		c-0.242-0.773-0.454-1.566-0.676-2.368H14.125z"/>
	<path fill="#453A59" d="M14.173,0C6.346,0,0,6.346,0,14.174c0,7.828,6.346,14.172,14.173,14.172s14.173-6.344,14.173-14.172
		C28.347,6.346,22.001,0,14.173,0z M14.633,23.139c-0.111,0.111-0.266,0.18-0.436,0.18c-2.351,0-4.59-0.939-6.25-2.6
		c-1.687-1.659-2.6-3.9-2.6-6.25c0-2.243,0.82-4.329,2.329-5.971H6.513c-0.17,0-0.325-0.07-0.436-0.181
		c-0.111-0.11-0.181-0.265-0.181-0.435c0-0.17,0.07-0.324,0.181-0.436s0.266-0.18,0.436-0.18h2.685l0.005,0
		c0.013,0.001,0.026,0.002,0.043,0.002c0.003,0,0.006,0,0.01,0c0.005,0,0.009,0,0.014,0c0.155,0,0.301,0.063,0.41,0.167
		C9.79,7.539,9.864,7.684,9.873,7.848L9.874,7.85v0.07L9.873,7.921C9.864,8.06,9.811,8.167,9.761,8.24
		C9.71,8.312,9.663,8.351,9.659,8.353L9.657,8.354L9.655,8.355c-0.666,0.459-0.89,0.77-0.892,0.772L8.76,9.132L8.756,9.136
		c-1.416,1.443-2.177,3.318-2.177,5.333c0,2.041,0.789,3.945,2.231,5.388c1.443,1.442,3.346,2.231,5.387,2.231
		c0.17,0,0.325,0.068,0.436,0.18c0.112,0.111,0.181,0.266,0.181,0.436S14.745,23.027,14.633,23.139z M15.992,17.73l-0.601-2.029
		h-2.474l-0.609,2.029h-1.141l2.359-7.114h1.295l2.358,7.114H15.992z M21.883,20.439c0.17,0,0.323,0.07,0.436,0.182
		c0.11,0.111,0.182,0.266,0.182,0.436c0,0.168-0.071,0.323-0.182,0.435c-0.112,0.111-0.266,0.181-0.436,0.181h-2.687h-0.004
		c-0.013-0.002-0.026-0.003-0.042-0.003c-0.004,0-0.008,0-0.011,0c-0.005,0-0.01,0.001-0.014,0.001
		c-0.155-0.001-0.301-0.064-0.41-0.168s-0.184-0.248-0.194-0.412v-0.002v-0.07v-0.002c0.011-0.138,0.063-0.245,0.113-0.318
		c0.051-0.072,0.099-0.109,0.103-0.112l0.001-0.001l0.002-0.002c0.665-0.459,0.891-0.77,0.893-0.772l0.003-0.005l0.003-0.004
		c1.416-1.441,2.178-3.318,2.178-5.332c0-2.041-0.789-3.944-2.231-5.387c-1.442-1.442-3.346-2.23-5.388-2.231
		c-0.168,0-0.323-0.069-0.434-0.181c-0.112-0.111-0.181-0.266-0.181-0.435c0-0.169,0.069-0.324,0.181-0.435
		c0.111-0.112,0.266-0.181,0.434-0.181c2.352,0,4.592,0.941,6.251,2.6c1.688,1.66,2.6,3.901,2.6,6.25
		c0,2.243-0.82,4.329-2.329,5.971H21.883z"/>
</g>
</svg>
