<?xml version="1.0" encoding="utf-8"?>
<!-- Generator: Adobe Illustrator 16.0.4, SVG Export Plug-In . SVG Version: 6.00 Build 0)  -->
<!DOCTYPE svg PUBLIC "-//W3C//DTD SVG 1.1//EN" "http://www.w3.org/Graphics/SVG/1.1/DTD/svg11.dtd">
<svg version="1.1" id="图层_1" xmlns="http://www.w3.org/2000/svg" xmlns:xlink="http://www.w3.org/1999/xlink" x="0px" y="0px"
	 width="100px" height="100px" viewBox="0 0 100 100" enable-background="new 0 0 100 100" xml:space="preserve">
<g>
	<path fill="#21A368" d="M98.195,50h-1.302c-0.004,6.478-1.313,12.643-3.688,18.253c-3.558,8.411-9.503,15.577-16.989,20.632
		c-7.486,5.058-16.5,8.008-26.217,8.008c-6.479,0-12.643-1.31-18.252-3.685c-8.412-3.558-15.576-9.506-20.632-16.991
		C6.06,68.733,3.108,59.718,3.108,50c0-6.478,1.312-12.643,3.685-18.253c3.559-8.411,9.506-15.575,16.991-20.632
		C31.269,6.059,40.283,3.109,50,3.109c6.478,0,12.643,1.313,18.254,3.683c8.411,3.558,15.574,9.505,20.631,16.992
		c5.057,7.483,8.005,16.5,8.009,26.216H98.195H99.5c0-6.832-1.386-13.345-3.891-19.268C91.852,21.847,85.577,14.29,77.677,8.953
		C69.777,3.616,60.248,0.5,50,0.5c-6.831,0-13.346,1.384-19.268,3.89c-8.885,3.759-16.44,10.034-21.777,17.933
		C3.617,30.223,0.5,39.752,0.5,50c0,6.832,1.386,13.345,3.891,19.27c3.758,8.884,10.032,16.44,17.933,21.777
		C30.223,96.384,39.753,99.503,50,99.5c6.831,0,13.346-1.384,19.269-3.89c8.885-3.756,16.438-10.032,21.777-17.933
		C96.383,69.777,99.5,60.248,99.5,50H98.195z"/>
	<path fill="#21A368" d="M30.846,43.535v10.141c0.006,0.085-0.008,1.031,0.425,2.128c0.22,0.547,0.567,1.149,1.153,1.639
		c0.582,0.492,1.414,0.814,2.341,0.806h7.631v-2.475h-7.631c-0.414-0.008-0.588-0.104-0.76-0.237
		c-0.252-0.193-0.475-0.646-0.577-1.096c-0.053-0.221-0.081-0.429-0.095-0.571l-0.012-0.163l-0.001-0.034l-0.16,0.004h0.16v-0.004
		l-0.16,0.004h0.16V43.535H30.846z"/>
	<path fill="#21A368" d="M54.264,43.192H43.537v9.832h1.237l-1.237-0.025v0.04c0.006,0.218,0.005,1.328,0.488,2.557
		c0.246,0.612,0.627,1.273,1.261,1.805c0.63,0.535,1.523,0.884,2.527,0.875c0.196,0,0.396-0.013,0.598-0.035l-0.141-1.229
		l-0.006,1.237l5.993,0.027l0.011-2.475l-6.066-0.027l-0.072,0.008l-0.316,0.02c-0.489-0.008-0.722-0.127-0.941-0.302
		c-0.325-0.256-0.592-0.809-0.72-1.367c-0.134-0.552-0.142-1.058-0.14-1.093h-0.515l0.515,0.01v-0.01h-0.515l0.515,0.01v-0.012
		v-7.37h8.251V43.192z"/>
	<polyline fill="#21A368" points="44.774,51.973 54.264,51.973 54.264,49.497 44.774,49.497 	"/>
	<path fill="#21A368" d="M56.224,58.232V43.535h4.658c2.474,0,4.529,0.648,6.171,1.945c1.643,1.297,2.461,3.035,2.461,5.219
		c0,2.277-0.818,4.101-2.461,5.474c-1.642,1.373-3.754,2.06-6.34,2.06H56.224z M58.331,45.224v11.33h2.372
		c2.072,0,3.689-0.51,4.853-1.528c1.164-1.018,1.744-2.445,1.744-4.279s-0.597-3.213-1.792-4.137
		c-1.192-0.923-2.765-1.386-4.712-1.386H58.331z"/>
	<path fill="#21A368" d="M56.224,58.232h0.164V43.699h4.494c2.444,0.002,4.46,0.639,6.069,1.91c1.602,1.271,2.395,2.947,2.398,5.09
		c-0.004,2.238-0.798,4.003-2.401,5.347c-1.608,1.346-3.677,2.021-6.235,2.022h-4.489V58.232h0.164H56.224v0.164h4.489
		c2.613,0.002,4.772-0.696,6.445-2.096c1.679-1.402,2.522-3.286,2.521-5.602c0.001-2.224-0.846-4.025-2.525-5.348
		c-1.672-1.325-3.771-1.982-6.272-1.98h-4.824v15.025h0.166V58.232z M58.331,45.224h-0.164v11.494h2.536
		c2.098,0.001,3.761-0.516,4.963-1.568c1.202-1.05,1.801-2.536,1.8-4.403c0.001-1.867-0.616-3.312-1.856-4.267
		c-1.229-0.951-2.841-1.422-4.813-1.42h-2.629v0.164H58.331v0.165h2.465c1.923,0.001,3.452,0.456,4.612,1.352
		c1.148,0.891,1.724,2.206,1.727,4.006c-0.001,1.8-0.563,3.17-1.688,4.155c-1.124,0.984-2.697,1.486-4.743,1.487h-2.208V45.224
		H58.331v0.165V45.224z"/>
</g>
</svg>
