<?xml version="1.0" encoding="utf-8"?>
<!-- Generator: Adobe Illustrator 16.0.4, SVG Export Plug-In . SVG Version: 6.00 Build 0)  -->
<!DOCTYPE svg PUBLIC "-//W3C//DTD SVG 1.1//EN" "http://www.w3.org/Graphics/SVG/1.1/DTD/svg11.dtd">
<svg version="1.1" id="图层_1" xmlns="http://www.w3.org/2000/svg" xmlns:xlink="http://www.w3.org/1999/xlink" x="0px" y="0px"
	 width="100px" height="100px" viewBox="0 0 100 100" enable-background="new 0 0 100 100" xml:space="preserve">
<g>
	<path fill="#21A368" d="M98.197,50H96.89c0,6.479-1.311,12.643-3.681,18.254c-3.559,8.41-9.506,15.576-16.993,20.631
		c-7.487,5.059-16.501,8.01-26.215,8.01c-6.478,0-12.644-1.312-18.253-3.686c-8.414-3.559-15.578-9.506-20.632-16.992
		C6.058,68.732,3.106,59.719,3.106,50c0-6.478,1.313-12.643,3.686-18.252c3.558-8.413,9.506-15.576,16.991-20.632
		c7.485-5.057,16.499-8.007,26.218-8.007c6.477,0,12.641,1.312,18.252,3.685c8.411,3.558,15.573,9.506,20.632,16.991
		c5.055,7.485,8.005,16.5,8.005,26.216H98.197H99.5c0-6.831-1.384-13.346-3.89-19.268c-3.759-8.885-10.036-16.441-17.933-21.778
		c-7.9-5.336-17.43-8.456-27.677-8.455c-6.833,0-13.346,1.385-19.271,3.891C21.848,8.148,14.291,14.423,8.954,22.323
		C3.617,30.222,0.5,39.752,0.5,50c0,6.833,1.385,13.346,3.891,19.27c3.759,8.885,10.031,16.439,17.933,21.777
		c7.896,5.336,17.43,8.457,27.678,8.453c6.828,0,13.345-1.385,19.266-3.891c8.887-3.754,16.443-10.031,21.78-17.932
		S99.5,60.248,99.5,50H98.197z"/>
	<path fill="#21A368" d="M44.394,63.223c0,1.611-1.308,2.92-2.922,2.92s-2.922-1.309-2.922-2.92V36.78
		c0-1.613,1.308-2.922,2.922-2.922s2.922,1.309,2.922,2.922V63.223z"/>
	<path fill="#21A368" d="M61.451,63.223c0,1.611-1.312,2.92-2.924,2.92s-2.924-1.309-2.924-2.92V36.78
		c0-1.613,1.312-2.922,2.924-2.922s2.924,1.309,2.924,2.922V63.223z"/>
</g>
</svg>
