<?xml version="1.0" encoding="utf-8"?>
<!-- Generator: Adobe Illustrator 16.0.4, SVG Export Plug-In . SVG Version: 6.00 Build 0)  -->
<!DOCTYPE svg PUBLIC "-//W3C//DTD SVG 1.1//EN" "http://www.w3.org/Graphics/SVG/1.1/DTD/svg11.dtd">
<svg version="1.1" id="图层_1" xmlns="http://www.w3.org/2000/svg" xmlns:xlink="http://www.w3.org/1999/xlink" x="0px" y="0px"
	 width="100px" height="100px" viewBox="0 0 100 100" enable-background="new 0 0 100 100" xml:space="preserve">
<g>
	<circle fill="#18B4ED" cx="50" cy="50" r="49.5"/>
	<path fill="#FFFFFF" d="M42.833,25.072c-9.812-3.214-17.015,14.357-7.807,18.997c4.344,2.188,8.818-1.982,10.752-5.45
		c2.43-4.351,2.111-11.013-2.747-13.462c-0.947-0.477-1.784,0.946-0.833,1.424c7.271,3.664,1.969,17.573-5.811,16.219
		c-8.296-1.446-2.62-18.961,6.007-16.135C43.41,26.997,43.84,25.403,42.833,25.072z"/>
	<path fill="#FFFFFF" d="M57.01,26.665c7.776-2.548,13.605,11.078,7.266,15.612c-6.829,4.882-15.277-11.557-7.069-15.696
		c0.95-0.479,0.116-1.903-0.831-1.424c-9.204,4.641-2.005,22.21,7.805,18.997c5.034-1.65,4.889-8.45,3.46-12.411
		c-1.591-4.405-6.267-8.242-11.068-6.669C55.565,25.403,55.996,26.997,57.01,26.665z"/>
	<path fill="#FFFFFF" d="M59.849,58.504c-0.675,12.521-18.761,12.521-19.436,0c-0.295-5.496,4.653-9.447,9.718-9.719
		C55.625,48.489,59.574,53.439,59.849,58.504c0.057,1.059,1.706,1.062,1.65,0c-0.349-6.439-4.931-11.023-11.368-11.369
		c-6.427-0.347-11.049,5.451-11.368,11.369c-0.345,6.426,5.451,11.049,11.368,11.367c6.424,0.346,11.049-5.453,11.368-11.367
		C61.555,57.439,59.905,57.443,59.849,58.504z"/>
	<path fill="#FFFFFF" d="M53.212,58.504c-0.215,3.969-5.948,3.971-6.162,0C46.835,54.527,52.999,54.549,53.212,58.504
		c0.056,1.059,1.706,1.062,1.649,0c-0.144-2.678-2.055-4.588-4.73-4.734c-2.67-0.143-4.599,2.275-4.731,4.734
		c-0.144,2.67,2.271,4.598,4.731,4.73c2.67,0.143,4.599-2.273,4.73-4.73C54.918,57.439,53.268,57.443,53.212,58.504z"/>
	<path fill="#FFFFFF" d="M54.151,57.709c1.811-1.02,3.622-2.039,5.433-3.057c0.929-0.523,0.097-1.947-0.831-1.426
		c-1.812,1.02-3.624,2.039-5.436,3.057C52.392,56.807,53.223,58.23,54.151,57.709z"/>
	<path fill="#FFFFFF" d="M39.923,55.309c1.961,0.957,3.924,1.914,5.885,2.871c0.954,0.463,1.79-0.959,0.834-1.426
		c-1.962-0.957-3.925-1.914-5.888-2.871C39.804,53.42,38.966,54.842,39.923,55.309z"/>
	<path fill="#FFFFFF" d="M49.306,62.408c0,2.213,0,4.426,0,6.639c0,1.062,1.65,1.062,1.65,0c0-2.213,0-4.426,0-6.639
		C50.956,61.346,49.306,61.346,49.306,62.408z"/>
	<path fill="#FFFFFF" d="M65.01,53.721c-1.384,4.066-2.767,8.135-4.149,12.203c-0.343,1.01,1.251,1.439,1.592,0.438
		c1.383-4.066,2.766-8.135,4.148-12.203C66.945,53.148,65.35,52.719,65.01,53.721z"/>
	<path fill="#FFFFFF" d="M66.978,55.25c-1.16,3.672-2.322,7.346-3.484,11.018c-0.322,1.018,1.273,1.449,1.593,0.439
		c1.16-3.674,2.321-7.348,3.483-11.02C68.892,54.672,67.296,54.24,66.978,55.25z"/>
	<path fill="#FFFFFF" d="M68.993,53.715c0.801-1.592,1.651-3.241,2.787-4.623c0.299-0.36-0.269-1.086-0.258,0.125
		c0.007,0.855-0.203,1.706-0.337,2.546c-0.18,1.146-0.428,2.281-0.686,3.414c-1.096,4.846-2.786,9.576-5.326,13.857
		c-0.42,0.709-0.891,1.43-1.359,2.111c-0.237,0.344-0.497,0.641-0.79,0.932c0.848-0.84,0.729-2.482,0.988-3.768
		c0.209-1.041-1.383-1.482-1.593-0.439c-0.293,1.463-1.066,8.674,2.237,4.877c3.687-4.242,5.636-10.254,7.051-15.57
		c0.448-1.68,2.786-8.73,0.761-9.916c-1.956-1.146-4.328,4.482-4.9,5.621C67.09,53.83,68.515,54.664,68.993,53.715z"/>
	<path fill="#FFFFFF" d="M71.895,48.756c2.622,0.972,5.244,1.943,7.867,2.914c1.808,0.672,1.949,0.479,2.003,2.406
		c0.067,2.428-0.646,4.934-1.239,7.266c-0.619,2.438-3.969,15.354-7.135,14.645c-3.397-0.762-6.744-2.363-9.923-3.748
		c-0.965-0.42-1.807,1-0.833,1.424c3.51,1.527,7.465,3.686,11.294,4.113c3.791,0.426,6.394-10.277,7.318-13.047
		c0.809-2.426,4.06-11.137,1.611-13.584c-2.11-2.113-7.705-2.935-10.525-3.981C71.333,46.793,70.905,48.388,71.895,48.756z"/>
	<path fill="#FFFFFF" d="M33.405,54.861c1.381,4.066,2.763,8.135,4.146,12.203c0.342,1.002,1.936,0.572,1.592-0.439
		c-1.382-4.066-2.765-8.135-4.147-12.201C34.655,53.42,33.062,53.852,33.405,54.861z"/>
	<path fill="#FFFFFF" d="M31.438,56.391c1.16,3.672,2.32,7.346,3.483,11.018c0.319,1.012,1.911,0.58,1.589-0.438
		c-1.16-3.672-2.32-7.346-3.483-11.018C32.707,54.941,31.115,55.373,31.438,56.391z"/>
	<path fill="#FFFFFF" d="M32.435,53.584c-0.672-1.334-2.628-6.273-4.703-5.703c-2.347,0.646,0.2,8.554,0.563,9.998
		c1.34,5.314,3.403,10.918,6.823,15.277c0.58,0.74,1.434,1.721,2.445,1.121c1.477-0.879,0.247-4.574,0.02-5.703
		c-0.209-1.043-1.802-0.602-1.592,0.438c0.235,1.168,0.461,2.328,0.531,3.52c0.007,0.139,0.651,0.51-0.006-0.246
		c-0.423-0.486-0.768-1.072-1.09-1.627c-2.604-4.467-4.479-9.002-5.742-14.023c-0.327-1.295-0.597-2.607-0.825-3.922
		c-0.027-0.15-0.052-0.301-0.074-0.453c-0.163-0.773-0.265-1.552-0.305-2.34c0.226-0.758,0.057-0.885-0.508-0.382
		c1.373,1.099,2.258,3.33,3.038,4.876C31.489,55.365,32.913,54.531,32.435,53.584z"/>
	<path fill="#FFFFFF" d="M27.674,47.867c-3.312,1.226-7.319,2.07-10.36,3.852c-2.825,1.656,0.857,11.809,1.444,13.711
		c0.646,2.096,3.917,13.432,6.735,13.115c4.088-0.457,8.136-2.553,11.876-4.182c0.973-0.424,0.132-1.846-0.833-1.424
		c-2.956,1.287-5.953,2.498-9.02,3.492c-4.111,1.334-6.717-9.977-7.626-12.928c-0.753-2.441-3.419-9.73-0.488-10.818
		c2.902-1.08,5.806-2.152,8.709-3.227C29.101,49.091,28.673,47.498,27.674,47.867z"/>
	<path fill="#FFFFFF" d="M66.492,40.667c-1.834,3.266-6.911,12.549-1.512,14.77c0.984,0.404,1.408-1.191,0.438-1.592
		c-3.505-1.439,1.331-10.269,2.498-12.347C68.438,40.571,67.013,39.739,66.492,40.667z"/>
	<path fill="#FFFFFF" d="M32.188,42.297c1.166,2.077,6.004,10.91,2.501,12.347c-0.971,0.4-0.548,1.998,0.438,1.594
		c5.398-2.219,0.319-11.507-1.515-14.772C33.094,40.539,31.668,41.37,32.188,42.297z"/>
	<path fill="#FFFFFF" d="M32.427,32.904c0.793-5.754,4.209-9.256,9.528-11.028c4.307-1.434,8.779-1.574,13.228-0.836
		c4.743,0.788,12.787,5.38,11.525,11.686c-0.208,1.039,1.381,1.48,1.591,0.438c2.182-10.9-12.937-14.637-20.626-14.125
		c-8.35,0.558-15.62,4.583-16.835,13.427C30.693,33.504,32.283,33.955,32.427,32.904z"/>
</g>
</svg>
