<?xml version="1.0" encoding="utf-8"?>
<!-- Generator: Adobe Illustrator 16.0.4, SVG Export Plug-In . SVG Version: 6.00 Build 0)  -->
<!DOCTYPE svg PUBLIC "-//W3C//DTD SVG 1.1//EN" "http://www.w3.org/Graphics/SVG/1.1/DTD/svg11.dtd">
<svg version="1.1" id="图层_1" xmlns="http://www.w3.org/2000/svg" xmlns:xlink="http://www.w3.org/1999/xlink" x="0px" y="0px"
	 width="100px" height="100px" viewBox="0 0 100 100" enable-background="new 0 0 100 100" xml:space="preserve">
<g>
	<path fill="#3DB481" d="M50.066,0.5h-0.133c-2.952,0-5.342,2.394-5.342,5.342v38.75H5.842c-2.953,0-5.342,2.394-5.342,5.342v0.133
		c0,2.948,2.389,5.342,5.342,5.342h38.75v38.75c0,2.952,2.39,5.342,5.342,5.342h0.133c2.948,0,5.342-2.39,5.342-5.342V5.842
		C55.408,2.894,53.015,0.5,50.066,0.5z"/>
	<path fill="#3DB481" d="M94.09,44.592H69.658c-2.986,0-5.408,2.422-5.408,5.408s2.422,5.408,5.408,5.408H94.09
		c2.988,0,5.41-2.422,5.41-5.408S97.078,44.592,94.09,44.592z"/>
</g>
</svg>
