<?xml version="1.0" encoding="utf-8"?>
<!-- Generator: Adobe Illustrator 16.0.0, SVG Export Plug-In . SVG Version: 6.00 Build 0)  -->
<!DOCTYPE svg PUBLIC "-//W3C//DTD SVG 1.1//EN" "http://www.w3.org/Graphics/SVG/1.1/DTD/svg11.dtd">
<svg version="1.1" id="图层_1" xmlns="http://www.w3.org/2000/svg" xmlns:xlink="http://www.w3.org/1999/xlink" x="0px" y="0px"
	 width="28.347px" height="28.347px" viewBox="0 0 28.347 28.347" enable-background="new 0 0 28.347 28.347" xml:space="preserve">
<path fill="#453A59" d="M25.96,11.296l-0.818,0.818c-1.338-2.943-3.827-5.253-6.895-6.354l1.088-1.088
	c0.065-0.066,0.144-0.117,0.216-0.176V4.022c0-1-0.814-1.813-1.813-1.813h-7.13c-1,0-1.813,0.813-1.813,1.813v0.474
	c0.071,0.06,0.146,0.108,0.215,0.176l1.088,1.088C7.03,6.861,4.542,9.17,3.201,12.114l-0.817-0.818
	c-1.244-1.246-1.244-3.267,0-4.515l2.112-2.109C5.084,4.084,5.843,3.785,6.611,3.75C6.752,1.661,8.482,0,10.607,0h7.13
	c2.125,0,3.853,1.662,3.996,3.751c0.771,0.034,1.53,0.333,2.115,0.922l2.111,2.111C27.208,8.029,27.208,10.05,25.96,11.296z
	 M25.42,17.1c0,2.583-0.883,4.961-2.355,6.861l1.935,1.936c0.561,0.561,0.561,1.471,0,2.029c-0.279,0.279-0.648,0.422-1.016,0.422
	c-0.369,0-0.736-0.143-1.016-0.422l-1.934-1.932c-1.901,1.469-4.278,2.354-6.861,2.354c-2.584,0-4.961-0.887-6.861-2.355
	l-1.935,1.932c-0.279,0.279-0.647,0.42-1.016,0.42c-0.367,0-0.735-0.141-1.015-0.42c-0.563-0.561-0.563-1.473,0-2.031l1.933-1.932
	c-1.47-1.902-2.354-4.278-2.354-6.863c0-6.202,5.046-11.249,11.248-11.249C20.374,5.849,25.42,10.897,25.42,17.1z M14.173,25.473
	c4.617,0,8.372-3.756,8.372-8.373c0-4.619-3.756-8.375-8.372-8.375c-4.617,0-8.376,3.756-8.376,8.375
	C5.797,21.717,9.554,25.473,14.173,25.473z M18.935,12.338c-0.114-0.114-0.29-0.128-0.42-0.044l-0.002-0.002l-3.96,2.713
	l0.687,0.472l0.003,0.002l0.07,0.049l-0.003,0.002c0.082,0.057,0.163,0.123,0.235,0.197c0.343,0.342,0.528,0.777,0.563,1.225
	l2.865-4.18l-0.002-0.003C19.063,12.638,19.051,12.455,18.935,12.338z M15.059,15.877L15.059,15.877l-0.053-0.041l-0.002-0.002
	l-5.16-3.535l-0.002,0.002c-0.133-0.092-0.313-0.081-0.43,0.036c-0.114,0.114-0.128,0.29-0.044,0.419H9.364l3.54,5.168
	c0.005,0.006,0.009,0.01,0.013,0.016l0.032,0.046l0.001-0.002c0.045,0.064,0.095,0.126,0.152,0.184c0.591,0.593,1.549,0.591,2.14,0
	c0.59-0.589,0.59-1.549,0-2.139C15.185,15.973,15.122,15.922,15.059,15.877z"/>
</svg>
