<?xml version="1.0" encoding="utf-8"?>
<!-- Generator: Adobe Illustrator 16.0.4, SVG Export Plug-In . SVG Version: 6.00 Build 0)  -->
<!DOCTYPE svg PUBLIC "-//W3C//DTD SVG 1.1//EN" "http://www.w3.org/Graphics/SVG/1.1/DTD/svg11.dtd">
<svg version="1.1" id="图层_1" xmlns="http://www.w3.org/2000/svg" xmlns:xlink="http://www.w3.org/1999/xlink" x="0px" y="0px"
	 width="100px" height="100px" viewBox="0 0 100 100" enable-background="new 0 0 100 100" xml:space="preserve">
<g>
	<circle fill="#18B4ED" cx="50" cy="50" r="49.5"/>
	<g>
		<g>
			<path fill="#FFFFFF" d="M58.156,51.431c0,4.425-3.59,8.012-8.016,8.012h-0.186c-4.425,0-8.01-3.589-8.01-8.012V32.991
				c0-4.428,3.585-8.012,8.01-8.012h0.186c4.426,0,8.016,3.585,8.016,8.012V51.431L58.156,51.431z"/>
			<g>
				<path fill="#FFFFFF" d="M61.92,42.462v9.261c0,6.456-5.256,11.709-11.713,11.709h-0.31c-6.462,0-11.718-5.253-11.718-11.709
					v-9.261h-1.452v9.261c0,7.271,5.896,13.166,13.17,13.166h0.31c7.275,0,13.17-5.895,13.17-13.166v-9.261H61.92z"/>
				<path fill="#FFFFFF" d="M61.92,42.462h-0.654v9.261c0,3.05-1.24,5.809-3.245,7.814c-2.004,2.003-4.763,3.239-7.812,3.239H49.9
					c-3.054,0-5.815-1.236-7.819-3.239c-2.007-2.006-3.247-4.768-3.247-7.814v-9.915h-2.104h-0.654v9.915
					c0,7.631,6.188,13.818,13.825,13.818h0.308c7.639,0,13.823-6.188,13.823-13.818v-9.915H61.92h-0.654v0.654H61.92v0.653h0.803
					v8.605c0,3.458-1.401,6.581-3.664,8.848c-2.272,2.265-5.395,3.664-8.852,3.664h-0.31c-3.458,0-6.584-1.399-8.852-3.664
					c-2.267-2.267-3.665-5.393-3.665-8.848v-8.605h0.145v8.605c0.004,6.819,5.55,12.36,12.372,12.362h0.31
					c6.818-0.002,12.364-5.545,12.364-12.362v-9.259H61.92v0.653V42.462z"/>
				<rect x="49.32" y="64.138" fill="#FFFFFF" width="1.46" height="9.936"/>
				<polygon fill="#FFFFFF" points="50.78,64.138 50.78,63.483 49.32,63.483 48.666,63.483 48.666,74.728 50.78,74.728 
					51.433,74.728 51.433,63.483 50.78,63.483 50.78,64.138 50.128,64.138 50.128,73.419 49.975,73.419 49.975,64.79 50.78,64.79 
					50.78,64.138 50.128,64.138 				"/>
				<rect x="41.915" y="73.348" fill="#FFFFFF" width="16.273" height="1.457"/>
				<polygon fill="#FFFFFF" points="58.188,74.805 58.84,74.805 58.84,73.348 58.84,72.695 41.259,72.695 41.259,74.805 
					41.259,75.459 58.84,75.459 58.84,74.805 58.188,74.805 58.188,74.15 42.569,74.15 42.569,74.002 57.534,74.002 57.534,74.805 
					58.188,74.805 58.188,74.15 				"/>
			</g>
		</g>
		<ellipse fill="#FFFFFF" cx="37.455" cy="41.807" rx="1.379" ry="1.351"/>
		<ellipse fill="#FFFFFF" cx="62.648" cy="41.807" rx="1.38" ry="1.351"/>
		<ellipse fill="#FFFFFF" cx="58.843" cy="74.078" rx="1.289" ry="1.381"/>
		<ellipse fill="#FFFFFF" cx="41.465" cy="74.078" rx="1.288" ry="1.381"/>
	</g>
</g>
</svg>
