<?xml version="1.0" encoding="utf-8"?>
<!-- Generator: Adobe Illustrator 16.0.0, SVG Export Plug-In . SVG Version: 6.00 Build 0)  -->
<!DOCTYPE svg PUBLIC "-//W3C//DTD SVG 1.1//EN" "http://www.w3.org/Graphics/SVG/1.1/DTD/svg11.dtd">
<svg version="1.1" id="图层_1" xmlns="http://www.w3.org/2000/svg" xmlns:xlink="http://www.w3.org/1999/xlink" x="0px" y="0px"
	 width="28.347px" height="28.347px" viewBox="0 0 28.347 28.347" enable-background="new 0 0 28.347 28.347" xml:space="preserve">
<g>
	<path fill="#E73E6C" d="M27.891,21.974c-0.018-0.058-0.041-0.116-0.075-0.176c-2.603-4.593-5.206-9.187-7.81-13.781
		c-0.912-1.608-1.822-3.216-2.734-4.824C15.564,0.178,12.536,0.819,11,3.531C8.111,8.628,5.223,13.725,2.335,18.82
		C1.395,20.479-0.008,22.316,0,24.29c0.01,2.642,2.991,2.857,4.946,2.857c5.115,0,10.23,0,15.345,0c1.492,0,2.983,0,4.475,0
		C27.934,27.147,29.072,24.599,27.891,21.974z M20.645,25.533c-3.395,0-6.789,0-10.185,0c-2.223,0-4.447,0-6.671,0
		c-3.971,0-1.163-3.947-0.215-5.621C6.49,14.763,9.409,9.613,12.327,4.463c0.811-1.427,2.493-2.322,3.572-0.417
		c0.358,0.632,0.716,1.264,1.073,1.896c1.568,2.766,3.135,5.531,4.703,8.296c1.58,2.791,3.163,5.583,4.746,8.374
		C28.217,26.284,22.693,25.533,20.645,25.533z"/>
	<path fill="#E73E6C" d="M20.641,17.012c-0.334-0.337-0.727-0.603-1.18-0.797c-0.449-0.195-0.932-0.293-1.441-0.293
		c-0.513,0-0.994,0.098-1.445,0.293c-0.449,0.194-0.841,0.46-1.178,0.797c-0.337,0.336-0.6,0.729-0.792,1.178
		c-0.193,0.449-0.289,0.929-0.289,1.438c0,0.514,0.096,0.995,0.289,1.444c0.192,0.449,0.455,0.843,0.792,1.18
		c0.337,0.336,0.729,0.601,1.178,0.792c0.451,0.192,0.933,0.288,1.445,0.288c0.51,0,0.992-0.096,1.441-0.288
		c0.453-0.191,0.846-0.456,1.18-0.792c0.334-0.337,0.597-0.73,0.792-1.18c0.196-0.449,0.294-0.931,0.294-1.444
		c0-0.509-0.098-0.988-0.294-1.438C21.237,17.74,20.975,17.348,20.641,17.012z M15.461,20.385c-0.081-0.245-0.12-0.51-0.12-0.792
		c0-0.368,0.07-0.713,0.208-1.034c0.139-0.322,0.329-0.604,0.568-0.844c0.24-0.24,0.521-0.43,0.844-0.567
		c0.322-0.14,0.667-0.208,1.035-0.208c0.275,0,0.539,0.04,0.789,0.122c0.247,0.082,0.479,0.196,0.695,0.345l-3.682,3.67
		C15.652,20.861,15.539,20.631,15.461,20.385z M20.432,20.626c-0.139,0.323-0.328,0.604-0.566,0.844
		c-0.241,0.24-0.521,0.43-0.844,0.568c-0.321,0.138-0.664,0.208-1.025,0.208c-0.273,0-0.527-0.037-0.764-0.11
		c-0.238-0.073-0.463-0.178-0.678-0.314l3.67-3.671c0.277,0.436,0.416,0.917,0.416,1.442C20.641,19.959,20.57,20.305,20.432,20.626z
		"/>
	<path fill="#E73E6C" d="M17.172,15.174c0.274-0.054,0.558-0.083,0.848-0.083c0.117,0,0.232,0.01,0.349,0.019
		c-1.095-1.043-2.564-1.692-4.194-1.692c-1.956,0-3.691,0.923-4.806,2.355l0.64,0.499c0.967-1.242,2.471-2.043,4.166-2.043
		C15.289,14.229,16.319,14.582,17.172,15.174z"/>
	<path fill="#E73E6C" d="M20.246,14.788l0.656-0.51c-1.561-2.005-3.991-3.299-6.729-3.299c-2.739,0-5.169,1.293-6.73,3.299
		l0.656,0.51c1.41-1.809,3.602-2.977,6.074-2.977C16.644,11.811,18.837,12.979,20.246,14.788z"/>
	<path fill="#E73E6C" d="M12.954,19.511c0,0.458,0.257,0.853,0.63,1.06c-0.064-0.304-0.1-0.619-0.1-0.943
		c0-0.422,0.062-0.829,0.169-1.216C13.242,18.606,12.954,19.023,12.954,19.511z"/>
	<path fill="#E73E6C" d="M15.269,16.027c-0.348-0.108-0.714-0.174-1.095-0.174c-1.174,0-2.216,0.556-2.885,1.415l0.641,0.498
		c0.521-0.668,1.331-1.1,2.244-1.1c0.132,0,0.26,0.012,0.387,0.029C14.771,16.448,15.009,16.226,15.269,16.027z"/>
</g>
</svg>
