<?xml version="1.0" encoding="utf-8"?>
<!-- Generator: Adobe Illustrator 16.0.0, SVG Export Plug-In . SVG Version: 6.00 Build 0)  -->
<!DOCTYPE svg PUBLIC "-//W3C//DTD SVG 1.1//EN" "http://www.w3.org/Graphics/SVG/1.1/DTD/svg11.dtd">
<svg version="1.1" id="图层_1" xmlns="http://www.w3.org/2000/svg" xmlns:xlink="http://www.w3.org/1999/xlink" x="0px" y="0px"
	 width="28.347px" height="28.347px" viewBox="0 0 28.347 28.347" enable-background="new 0 0 28.347 28.347" xml:space="preserve">
<g>
	<circle fill="#453A59" cx="14.213" cy="1.211" r="1.21"/>
	<path fill="#453A59" d="M22.937,23.814c-0.167,0.004-0.314,0.074-0.422,0.185c-0.313,0.273-0.639,0.535-0.979,0.776
		c-0.991,0.712-2.09,1.281-3.267,1.685c-1.179,0.401-2.437,0.635-3.748,0.672c-1.749,0.047-3.422-0.261-4.953-0.859
		c-1.12-0.438-2.166-1.032-3.106-1.756l-0.003,0.005c-0.113-0.11-0.27-0.176-0.44-0.172c-0.337,0.01-0.603,0.29-0.595,0.628
		c0.006,0.237,0.148,0.439,0.348,0.534c0.313,0.238,0.634,0.464,0.965,0.675c1.127,0.717,2.364,1.275,3.678,1.645
		c1.313,0.37,2.705,0.55,4.14,0.51c1.912-0.052,3.727-0.49,5.367-1.238c1.221-0.557,2.344-1.284,3.342-2.151
		c0.185-0.109,0.307-0.313,0.301-0.543C23.555,24.071,23.273,23.805,22.937,23.814z"/>
	<path fill="#453A59" d="M2.485,19.348L2.485,19.348c-0.002-0.007-0.005-0.013-0.008-0.02c-0.005-0.014-0.01-0.026-0.016-0.04
		c-0.096-0.235-0.188-0.473-0.27-0.715c-0.402-1.178-0.636-2.436-0.672-3.748c-0.048-1.749,0.26-3.421,0.858-4.952
		C3.275,7.577,4.828,5.6,6.81,4.179c0.991-0.709,2.09-1.28,3.268-1.683c0.15-0.052,0.303-0.1,0.456-0.145
		c0.003-0.001,0.007-0.002,0.012-0.004c0.011-0.003,0.022-0.007,0.033-0.01V2.336c0.239-0.088,0.406-0.322,0.399-0.591
		c-0.008-0.337-0.289-0.603-0.626-0.594c-0.1,0.002-0.192,0.029-0.273,0.072C9.51,1.399,8.959,1.609,8.426,1.852
		c-2.46,1.122-4.527,2.937-5.962,5.191C1.747,8.169,1.188,9.406,0.82,10.72c-0.369,1.313-0.55,2.705-0.511,4.139
		c0.047,1.695,0.396,3.313,0.996,4.8c0.016,0.08,0.047,0.154,0.091,0.221c0.001,0.003,0.002,0.007,0.004,0.011l0.002-0.001
		c0.115,0.163,0.305,0.268,0.52,0.262c0.337-0.009,0.604-0.29,0.594-0.627C2.514,19.463,2.503,19.403,2.485,19.348z"/>
	<circle fill="#453A59" cx="25.088" cy="22.031" r="1.21"/>
	<circle fill="#453A59" cx="3.651" cy="22.622" r="1.21"/>
	<path fill="#453A59" d="M26.799,8.729c-1.122-2.459-2.937-4.527-5.19-5.96c-1.047-0.666-2.188-1.195-3.399-1.563
		c-0.091-0.048-0.194-0.075-0.304-0.072c-0.338,0.009-0.604,0.29-0.595,0.627c0.009,0.286,0.212,0.521,0.479,0.581v0
		c0.335,0.1,0.665,0.213,0.988,0.339c2.297,0.897,4.274,2.45,5.694,4.433c0.71,0.991,1.28,2.089,1.684,3.267
		c0.402,1.179,0.636,2.436,0.672,3.747c0.044,1.591-0.208,3.119-0.704,4.535c-0.043,0.087-0.066,0.186-0.064,0.289
		c0.01,0.338,0.291,0.604,0.628,0.595c0.296-0.008,0.536-0.225,0.585-0.505c0.094-0.267,0.179-0.534,0.257-0.808
		c0.369-1.314,0.549-2.705,0.51-4.14C27.984,12.184,27.547,10.369,26.799,8.729z"/>
	<path fill="#453A59" d="M14.213,23.539c4.985,0,9.026-4.041,9.026-9.027c0-4.984-4.041-9.025-9.026-9.025
		c-4.986,0-9.027,4.041-9.027,9.025C5.186,19.498,9.227,23.539,14.213,23.539z M14.997,10.39l2.621-1.876
		c0.089-0.063,0.198-0.101,0.315-0.101c0.299,0,0.542,0.243,0.542,0.542c0,0.182-0.089,0.342-0.227,0.44l0.001,0.001l-2.168,1.551
		v7.199l2.169,1.869c0.136,0.099,0.225,0.259,0.225,0.439c0,0.299-0.243,0.542-0.542,0.542c-0.135,0-0.256-0.049-0.351-0.13
		L17.58,20.87l-2.583-2.227V10.39z M10.161,9.396V9.395c-0.137-0.098-0.227-0.258-0.227-0.44c0-0.299,0.243-0.542,0.542-0.542
		c0.118,0,0.227,0.038,0.315,0.101h0.001l2.622,1.876v8.254l-2.583,2.227l-0.002-0.003c-0.095,0.081-0.218,0.13-0.353,0.13
		c-0.299,0-0.542-0.243-0.542-0.542c0-0.181,0.088-0.341,0.225-0.439l2.168-1.869v-7.199L10.161,9.396z"/>
</g>
</svg>
