<?xml version="1.0" encoding="utf-8"?>
<!-- Generator: Adobe Illustrator 16.0.0, SVG Export Plug-In . SVG Version: 6.00 Build 0)  -->
<!DOCTYPE svg PUBLIC "-//W3C//DTD SVG 1.1//EN" "http://www.w3.org/Graphics/SVG/1.1/DTD/svg11.dtd">
<svg version="1.1" id="图层_1" xmlns="http://www.w3.org/2000/svg" xmlns:xlink="http://www.w3.org/1999/xlink" x="0px" y="0px"
	 width="28.347px" height="28.347px" viewBox="0 0 28.347 28.347" enable-background="new 0 0 28.347 28.347" xml:space="preserve">
<g>
	<polygon fill="#453A59" points="3.063,14.231 8.993,18.639 8.993,16.357 17.364,16.357 17.364,12.104 8.993,12.104 8.993,9.823 	
		"/>
	<path fill="#453A59" d="M22.326,0H6.022C4.379,0,3.046,1.313,3.046,2.933v5.402h0.007c0.034,0.589,0.519,1.058,1.115,1.058
		c0.598,0,1.082-0.469,1.116-1.058h0.003V8.314c0-0.015,0.003-0.029,0.003-0.044c0-0.015-0.003-0.029-0.003-0.044V2.352h3.327v1.805
		h3.201V2.352h4.522v1.805h3.199V2.352h3.523v23.679h-3.523V24.18h-3.199v1.852h-4.522V24.18H8.614v1.852H5.288v-4.547v-1.482
		c0-0.014,0.003-0.027,0.003-0.043c0-0.619-0.502-1.123-1.122-1.123c-0.619,0-1.123,0.504-1.123,1.123
		c0,0.004,0.001,0.008,0.001,0.012H3.046v5.443c0,1.619,1.333,2.934,2.976,2.934h16.304c1.643,0,2.975-1.314,2.975-2.934V2.933
		C25.301,1.313,23.969,0,22.326,0z"/>
</g>
</svg>
