<?xml version="1.0" encoding="utf-8"?>
<!-- Generator: Adobe Illustrator 16.0.0, SVG Export Plug-In . SVG Version: 6.00 Build 0)  -->
<!DOCTYPE svg PUBLIC "-//W3C//DTD SVG 1.1//EN" "http://www.w3.org/Graphics/SVG/1.1/DTD/svg11.dtd">
<svg version="1.1" id="图层_1" xmlns="http://www.w3.org/2000/svg" xmlns:xlink="http://www.w3.org/1999/xlink" x="0px" y="0px"
	 width="28.347px" height="28.347px" viewBox="0 0 28.347 28.347" enable-background="new 0 0 28.347 28.347" xml:space="preserve">
<path fill="#453A59" d="M14.173,0C6.346,0,0,6.346,0,14.174c0,7.828,6.346,14.172,14.173,14.172s14.173-6.344,14.173-14.172
	C28.347,6.346,22.001,0,14.173,0z M14.173,17.752c-0.959,0-1.735-0.776-1.735-1.735c0-0.202,0.034-0.396,0.097-0.576l-2.539-2.177
	c-0.246-0.21-0.273-0.579-0.064-0.824c0.21-0.245,0.579-0.274,0.824-0.063l2.517,2.157c0.263-0.16,0.571-0.252,0.901-0.252
	c0.959,0,1.737,0.777,1.737,1.736S15.132,17.752,14.173,17.752z M14.173,8.438c-3.226,0-5.842,2.616-5.842,5.843
	c0,0.323-0.262,0.584-0.583,0.584c-0.324,0-0.585-0.262-0.585-0.584c0-3.873,3.14-7.011,7.011-7.011
	c3.874,0,7.011,3.139,7.011,7.011c0,0.323-0.261,0.584-0.584,0.584c-0.322,0-0.584-0.262-0.584-0.584
	C20.017,11.054,17.4,8.438,14.173,8.438z M19.968,22.35c-0.262,0.188-0.626,0.129-0.815-0.133s-0.129-0.628,0.133-0.816
	c2.277-1.637,3.652-4.263,3.652-7.12c0-4.84-3.924-8.765-8.764-8.765c-4.839,0-8.764,3.925-8.764,8.765
	c0,2.8,1.321,5.379,3.523,7.024c0.258,0.194,0.311,0.561,0.118,0.818c-0.194,0.258-0.56,0.313-0.818,0.119
	c-2.494-1.864-3.992-4.789-3.992-7.961c0-5.485,4.448-9.933,9.933-9.933c5.487,0,9.932,4.447,9.932,9.933
	C24.105,17.518,22.546,20.494,19.968,22.35z"/>
</svg>
