<?xml version="1.0" encoding="utf-8"?>
<!-- Generator: Adobe Illustrator 16.0.0, SVG Export Plug-In . SVG Version: 6.00 Build 0)  -->
<!DOCTYPE svg PUBLIC "-//W3C//DTD SVG 1.1//EN" "http://www.w3.org/Graphics/SVG/1.1/DTD/svg11.dtd">
<svg version="1.1" id="图层_1" xmlns="http://www.w3.org/2000/svg" xmlns:xlink="http://www.w3.org/1999/xlink" x="0px" y="0px"
	 width="28.347px" height="28.347px" viewBox="0 0 28.347 28.347" enable-background="new 0 0 28.347 28.347" xml:space="preserve">
<g>
	<path fill="#FFFFFF" d="M26.616,12.682l-0.68-0.015c-0.249-1.962-0.974-3.773-2.061-5.316l0.49-0.468
		c0.708-0.677,0.732-1.798,0.056-2.506c-0.674-0.707-1.797-0.732-2.504-0.056l-0.493,0.47c-1.495-1.156-3.271-1.962-5.214-2.298
		l0.015-0.683C16.248,0.833,15.474,0.023,14.494,0c-0.979-0.022-1.787,0.752-1.812,1.732l-0.015,0.68
		c-1.963,0.249-3.772,0.972-5.315,2.059l-0.468-0.49C6.208,3.274,5.088,3.249,4.378,3.926C3.672,4.6,3.647,5.722,4.323,6.431
		l0.468,0.492c-1.157,1.495-1.963,3.272-2.297,5.215l-0.681-0.017c-0.979-0.022-1.789,0.754-1.811,1.731
		c-0.023,0.978,0.752,1.789,1.732,1.812l0.679,0.016c0.251,1.961,0.979,3.77,2.066,5.312l-0.496,0.472
		c-0.707,0.676-0.732,1.797-0.055,2.504c0.674,0.707,1.796,0.732,2.504,0.059l0.498-0.477c1.495,1.154,3.269,1.957,5.209,2.293
		l-0.015,0.693c-0.022,0.979,0.752,1.789,1.731,1.811s1.787-0.752,1.81-1.732l0.015-0.691c1.96-0.248,3.77-0.971,5.308-2.053
		l0.478,0.496c0.675,0.707,1.797,0.732,2.504,0.055c0.71-0.676,0.732-1.797,0.056-2.506l-0.473-0.496
		c1.157-1.492,1.965-3.268,2.302-5.208l0.683,0.015c0.979,0.021,1.789-0.754,1.809-1.731C28.37,13.514,27.595,12.705,26.616,12.682
		L26.616,12.682z M14.175,23.203c-4.978,0-9.012-4.039-9.012-9.021s4.034-9.021,9.012-9.021s9.012,4.04,9.012,9.021
		S19.152,23.203,14.175,23.203L14.175,23.203z M14.177,7.721c-3.566,0-6.455,2.887-6.455,6.448c0,3.561,2.889,6.45,6.455,6.45
		c3.564,0,6.45-2.889,6.45-6.45C20.627,10.608,17.738,7.721,14.177,7.721L14.177,7.721z M14.177,18.906
		c-2.607,0-4.718-2.117-4.718-4.726c0-2.609,2.111-4.724,4.718-4.724c2.605,0,4.713,2.114,4.713,4.724S16.782,18.906,14.177,18.906
		L14.177,18.906z"/>
</g>
</svg>
