<?xml version="1.0" encoding="utf-8"?>
<!-- Generator: Adobe Illustrator 16.0.0, SVG Export Plug-In . SVG Version: 6.00 Build 0)  -->
<!DOCTYPE svg PUBLIC "-//W3C//DTD SVG 1.1//EN" "http://www.w3.org/Graphics/SVG/1.1/DTD/svg11.dtd">
<svg version="1.1" id="图层_1" xmlns="http://www.w3.org/2000/svg" xmlns:xlink="http://www.w3.org/1999/xlink" x="0px" y="0px"
	 width="28.347px" height="28.347px" viewBox="0 0 28.347 28.347" enable-background="new 0 0 28.347 28.347" xml:space="preserve">
<g>
	<path fill="#453A59" d="M25.961,6.784L23.85,4.672c-0.585-0.588-1.345-0.888-2.115-0.922C21.591,1.661,19.863,0,17.738,0h-7.129
		C8.482,0,6.753,1.661,6.611,3.75C5.844,3.785,5.083,4.084,4.496,4.672L2.385,6.781c-1.246,1.248-1.246,3.269,0,4.515l0.818,0.818
		c1.34-2.943,3.829-5.253,6.895-6.354L9.011,4.672C8.943,4.604,8.867,4.556,8.794,4.496V4.022c0-1,0.814-1.813,1.814-1.813h7.129
		c0.999,0,1.813,0.813,1.813,1.813v0.474c-0.072,0.06-0.15,0.11-0.217,0.176L18.248,5.76c3.066,1.101,5.557,3.41,6.896,6.354
		l0.817-0.818C27.208,10.05,27.208,8.029,25.961,6.784z"/>
	<path fill="#453A59" d="M15.727,16.316V6.711c0-0.857-0.696-1.552-1.553-1.552s-1.551,0.695-1.551,1.552v9.605
		c0,0.857,0.694,1.553,1.551,1.553S15.727,17.174,15.727,16.316z"/>
	<path fill="#453A59" d="M19.932,7.44c-0.236-0.169-0.524-0.268-0.836-0.268c-0.794,0-1.438,0.644-1.438,1.438
		c0,0.598,0.366,1.11,0.886,1.328l-0.009,0.016c2.403,1.474,4.011,4.125,4.011,7.146c0,4.617-3.755,8.373-8.373,8.373
		c-4.619,0-8.376-3.756-8.376-8.373c0-3.069,1.661-5.758,4.131-7.216L9.925,9.881c0.457-0.241,0.768-0.72,0.768-1.271
		c0-0.794-0.644-1.438-1.438-1.438c-0.298,0-0.576,0.091-0.805,0.247c-3.305,1.962-5.525,5.565-5.525,9.679
		c0,2.585,0.886,4.961,2.355,6.863l-1.933,1.932c-0.563,0.559-0.563,1.471,0,2.031c0.279,0.279,0.647,0.42,1.016,0.42
		c0.367,0,0.735-0.141,1.015-0.42l1.933-1.932c1.901,1.469,4.28,2.355,6.863,2.355c2.583,0,4.96-0.885,6.862-2.354l1.933,1.932
		c0.28,0.279,0.648,0.422,1.016,0.422c0.368,0,0.735-0.143,1.017-0.422c0.561-0.559,0.561-1.469,0-2.029l-1.935-1.936
		c1.473-1.9,2.355-4.278,2.355-6.861C25.421,13.001,23.217,9.407,19.932,7.44z"/>
</g>
</svg>
