<?xml version="1.0" encoding="utf-8"?>
<!-- Generator: Adobe Illustrator 16.0.4, SVG Export Plug-In . SVG Version: 6.00 Build 0)  -->
<!DOCTYPE svg PUBLIC "-//W3C//DTD SVG 1.1//EN" "http://www.w3.org/Graphics/SVG/1.1/DTD/svg11.dtd">
<svg version="1.1" id="图层_1" xmlns="http://www.w3.org/2000/svg" xmlns:xlink="http://www.w3.org/1999/xlink" x="0px" y="0px"
	 width="100px" height="100px" viewBox="0 0 100 100" enable-background="new 0 0 100 100" xml:space="preserve">
<circle fill="#8AB42F" cx="50" cy="50" r="49.5"/>
<g>
	<path opacity="0.4" fill="#FFFFFF" enable-background="new    " d="M56.696,52.053c-5.418,0-4.539,4.53-10.516,4.53
		c-3.913,0-8.126-3.755-12.69-6.351c-0.926,3.151-1.51,6.311-1.51,9.339c0,17.158,15.008,19.344,18.02,19.344
		c3.008,0,18.016-2.188,18.016-19.344c0-1.429-0.16-2.883-0.388-4.356C62.961,53.736,59.739,52.053,56.696,52.053z"/>
	<path fill="#FFFFFF" stroke="#FFFFFF" stroke-width="2.2564" stroke-miterlimit="10" d="M67.518,45.438
		c-5.29-13.766-15.543-25.837-15.62-25.952C51.424,18.928,50.736,18.61,50,18.61s-1.421,0.317-1.897,0.877
		c-0.049,0.066-4.624,5.48-9.238,13.135c-2.304,3.828-4.62,8.22-6.383,12.817c-1.758,4.599-2.974,9.411-2.979,14.132
		c-0.004,4.649,1.029,8.452,2.7,11.458c2.515,4.53,6.377,7.139,9.813,8.571c1.725,0.723,3.356,1.161,4.73,1.431
		c1.38,0.262,2.478,0.358,3.253,0.358c1.024-0.004,2.662-0.163,4.709-0.688c3.043-0.795,6.954-2.415,10.187-5.758
		c3.244-3.329,5.624-8.406,5.602-15.373C70.49,54.851,69.276,50.036,67.518,45.438z M63.459,68.632
		c-1.847,3.327-4.671,5.258-7.395,6.405c-1.355,0.568-2.671,0.928-3.755,1.137c-1.08,0.214-1.955,0.271-2.308,0.27
		c-0.48,0.004-1.852-0.11-3.464-0.531c-2.445-0.626-5.501-1.939-7.86-4.394c-2.352-2.468-4.192-6.049-4.212-11.947
		c-0.004-3.853,1.029-8.141,2.65-12.369c2.423-6.343,6.135-12.523,9.234-17.075c1.411-2.069,2.677-3.782,3.649-5.056
		c1.871,2.442,4.848,6.551,7.708,11.487c4.118,7.057,7.866,15.776,7.836,23.013C65.535,63.506,64.693,66.406,63.459,68.632z"/>
</g>
</svg>
