<?xml version="1.0" encoding="utf-8"?>
<!-- Generator: Adobe Illustrator 16.0.4, SVG Export Plug-In . SVG Version: 6.00 Build 0)  -->
<!DOCTYPE svg PUBLIC "-//W3C//DTD SVG 1.1//EN" "http://www.w3.org/Graphics/SVG/1.1/DTD/svg11.dtd">
<svg version="1.1" id="图层_1" xmlns="http://www.w3.org/2000/svg" xmlns:xlink="http://www.w3.org/1999/xlink" x="0px" y="0px"
	 width="100px" height="100px" viewBox="0 0 100 100" enable-background="new 0 0 100 100" xml:space="preserve">
<circle fill="#FF426A" cx="50" cy="50" r="49.5"/>
<g>
	<path opacity="0.4" fill="#FFFFFF" enable-background="new    " d="M45.453,38.668v21.664c-2.705,1.568-4.546,4.463-4.546,7.809
		c0,5.012,4.07,9.07,9.091,9.07c5.021,0,9.089-4.059,9.089-9.07c0-3.346-1.837-6.24-4.543-7.809V38.668"/>
	<g>
		<path fill="#FFFFFF" d="M50,22.796c2.508,0,4.548,2.028,4.548,4.536V60.33c2.704,1.57,4.544,4.461,4.544,7.809
			c0,5.01-4.067,9.066-9.09,9.066c-5.021,0-9.09-4.057-9.09-9.066c0-3.348,1.839-6.238,4.546-7.809V27.332
			C45.453,24.824,47.489,22.796,50,22.796 M50,18.263c-5.014,0-9.091,4.065-9.091,9.069v30.717
			c-2.853,2.557-4.547,6.225-4.547,10.09c0,7.498,6.117,13.598,13.638,13.598s13.638-6.1,13.638-13.598
			c0-3.865-1.692-7.533-4.546-10.09V27.332C59.092,22.329,55.016,18.263,50,18.263z"/>
		<rect x="43.184" y="50.002" fill="#FFFFFF" width="4.545" height="2.268"/>
		<rect x="43.184" y="36.4" fill="#FFFFFF" width="4.545" height="2.268"/>
		<rect x="43.184" y="43.201" fill="#FFFFFF" width="6.816" height="2.266"/>
		<rect x="43.184" y="29.6" fill="#FFFFFF" width="6.816" height="2.268"/>
	</g>
</g>
</svg>
