<?xml version="1.0" encoding="utf-8"?>
<!-- Generator: Adobe Illustrator 16.0.4, SVG Export Plug-In . SVG Version: 6.00 Build 0)  -->
<!DOCTYPE svg PUBLIC "-//W3C//DTD SVG 1.1//EN" "http://www.w3.org/Graphics/SVG/1.1/DTD/svg11.dtd">
<svg version="1.1" id="图层_1" xmlns="http://www.w3.org/2000/svg" xmlns:xlink="http://www.w3.org/1999/xlink" x="0px" y="0px"
	 width="100px" height="100px" viewBox="0 0 100 100" enable-background="new 0 0 100 100" xml:space="preserve">
<g>
	<path fill="#21A368" d="M2.084,50H0.499c0,6.829,1.386,13.346,3.891,19.27c3.759,8.887,10.032,16.44,17.933,21.775
		C30.221,96.385,39.753,99.5,50,99.5c6.83,0,13.345-1.385,19.267-3.889c8.886-3.758,16.439-10.033,21.779-17.935
		c5.335-7.897,8.455-17.429,8.455-27.677c0-6.829-1.387-13.346-3.894-19.268c-3.758-8.886-10.033-16.44-17.93-21.777
		C69.778,3.618,60.244,0.5,50,0.5c-6.831,0-13.346,1.384-19.269,3.889C21.846,8.148,14.29,14.424,8.954,22.323
		C3.617,30.221,0.498,39.754,0.499,50H2.084h1.584c0.001-6.402,1.296-12.491,3.641-18.035c3.516-8.311,9.393-15.39,16.787-20.384
		C31.493,6.586,40.398,3.668,50,3.668c6.399,0,12.49,1.296,18.031,3.641c8.314,3.516,15.392,9.393,20.387,16.787
		C93.414,31.494,96.33,40.398,96.33,50c0,6.4-1.297,12.494-3.641,18.035c-3.516,8.311-9.392,15.39-16.787,20.387
		c-7.396,4.996-16.302,7.91-25.902,7.91c-6.402,0-12.492-1.297-18.034-3.639c-8.312-3.516-15.391-9.396-20.386-16.787
		C6.584,68.51,3.669,59.602,3.668,50H2.084z"/>
	<path fill="#21A368" d="M37.989,35.683c-0.731,0-1.325,0.593-1.325,1.325v25.986c0,0.73,0.594,1.323,1.325,1.323h1.555
		c0.731,0,1.325-0.593,1.325-1.323V51.738c0.138,0.116,0.291,0.23,0.457,0.338l18.299,11.819c2.039,1.318,3.709,0.409,3.709-2.021
		V38.163c0-2.428-1.688-3.368-3.753-2.089l-18.21,11.28c-0.184,0.114-0.352,0.235-0.502,0.36V37.008
		c0-0.732-0.594-1.325-1.325-1.325H37.989z"/>
</g>
</svg>
