<?xml version="1.0" encoding="utf-8"?>
<!-- Generator: Adobe Illustrator 16.0.4, SVG Export Plug-In . SVG Version: 6.00 Build 0)  -->
<!DOCTYPE svg PUBLIC "-//W3C//DTD SVG 1.1//EN" "http://www.w3.org/Graphics/SVG/1.1/DTD/svg11.dtd">
<svg version="1.1" id="图层_1" xmlns="http://www.w3.org/2000/svg" xmlns:xlink="http://www.w3.org/1999/xlink" x="0px" y="0px"
	 width="100px" height="100px" viewBox="0 0 100 100" enable-background="new 0 0 100 100" xml:space="preserve">
<g>
	<path fill="#1AA268" d="M99.5,50c0,27.339-22.162,49.501-49.501,49.501C22.665,99.501,0.5,77.339,0.5,50
		c0-27.338,22.165-49.501,49.499-49.501C77.338,0.499,99.5,22.662,99.5,50z"/>
	<g>
		<path fill="#F7F7F7" d="M47.626,38.901c0,1.239-1.002,2.241-2.237,2.241c-1.234,0-2.236-1.002-2.236-2.241
			c0-1.234,1.002-2.236,2.236-2.236C46.624,36.665,47.626,37.667,47.626,38.901z"/>
		<line fill="#F7F7F7" x1="53.668" y1="38.904" x2="59.562" y2="38.904"/>
		<path fill="#F7F7F7" d="M53.668,40.657c1.965,0,3.93,0,5.894,0c0.958,0,1.758-0.795,1.758-1.753c0-0.954-0.8-1.754-1.758-1.754
			c-1.964,0-3.929,0-5.894,0c-0.958,0-1.758,0.8-1.758,1.754C51.91,39.862,52.71,40.657,53.668,40.657z"/>
		<line fill="#F7F7F7" x1="53.668" y1="43.162" x2="59.562" y2="43.162"/>
		<path fill="#F7F7F7" d="M53.668,44.916c1.965,0,3.93,0,5.894,0c0.958,0,1.758-0.8,1.758-1.754c0-0.958-0.8-1.753-1.758-1.753
			c-1.964,0-3.929,0-5.894,0c-0.958,0-1.758,0.795-1.758,1.753C51.91,44.116,52.71,44.916,53.668,44.916z"/>
		<line fill="#F7F7F7" x1="52.024" y1="73.182" x2="55.233" y2="76.574"/>
		<path fill="#F7F7F7" d="M50.781,74.421c1.067,1.129,2.14,2.263,3.208,3.396c0.659,0.695,1.824,0.66,2.483,0
			c0.689-0.689,0.659-1.788,0-2.482c-1.068-1.134-2.137-2.264-3.209-3.397c-0.654-0.694-1.819-0.659-2.482,0
			C50.091,72.628,50.126,73.727,50.781,74.421z"/>
		<path fill="#F7F7F7" d="M65.323,38.913c0.026,0.026,0.053,0.053,0.074,0.079c0.035,0.039,0.066,0.079,0.097,0.118
			c-0.241-0.303-0.062-0.074-0.009-0.004c0.11,0.153,0.211,0.316,0.304,0.483c0.053,0.097,0.101,0.197,0.149,0.303
			c0.053,0.11,0.048,0.105,0-0.013c0.021,0.057,0.044,0.114,0.062,0.176c0.048,0.123,0.083,0.25,0.114,0.373
			c0.009,0.044,0.083,0.448,0.057,0.22c0.018,0.146,0.022,0.29,0.022,0.436c0,0.044-0.026,0.439-0.005,0.285
			c-0.097,0.682-0.404,1.248-0.865,1.78c-0.387,0.452-0.444,1.107,0,1.551c0.399,0.4,1.16,0.453,1.551,0
			c1.218-1.401,1.811-3.115,1.332-4.948c-0.229-0.865-0.712-1.744-1.332-2.391C65.898,36.333,64.348,37.889,65.323,38.913z"/>
		<path fill="#F7F7F7" d="M70.104,35.437c0.105,0.132-0.198-0.255-0.114-0.145c0.053,0.07,0.105,0.141,0.153,0.215
			c0.176,0.246,0.339,0.501,0.492,0.756c0.22,0.378,0.418,0.77,0.603,1.169c0.021,0.049,0.044,0.105,0.07,0.158
			c-0.053-0.123-0.058-0.127-0.009-0.013c0.048,0.114,0.092,0.232,0.136,0.352c0.105,0.276,0.193,0.558,0.277,0.844
			c0.074,0.268,0.136,0.54,0.193,0.812c0.026,0.141,0.053,0.281,0.074,0.427c0.018,0.132,0.022,0.145,0.005,0.039
			c0.013,0.11,0.021,0.22,0.035,0.334c0.026,0.308,0.03,0.615,0.026,0.923c0,0.158-0.014,0.316-0.022,0.475
			c-0.018,0.225-0.03,0.321-0.048,0.439c-0.246,1.6-0.984,3.046-2.026,4.276c-0.382,0.457-0.448,1.103,0,1.551
			c0.4,0.396,1.169,0.457,1.556,0c1.227-1.45,2.171-3.115,2.545-4.996c0.299-1.517,0.224-3.072-0.146-4.57
			c-0.404-1.64-1.182-3.278-2.254-4.597c-0.378-0.467-1.16-0.392-1.547,0C69.647,34.343,69.727,34.976,70.104,35.437z"/>
		<path fill="#F7F7F7" d="M75.303,32.765c0.022,0.026,0.044,0.057,0.066,0.083c-0.321-0.413-0.022-0.021,0.053,0.084
			c0.241,0.339,0.466,0.69,0.677,1.051c0.308,0.527,0.584,1.076,0.83,1.639c0.114,0.264-0.092-0.22,0.022,0.049
			c0.03,0.083,0.065,0.162,0.097,0.246c0.065,0.162,0.127,0.334,0.188,0.505c0.141,0.392,0.26,0.787,0.369,1.191
			c0.457,1.696,0.589,3.52,0.33,5.251c-0.36,2.431-1.402,4.654-2.804,6.653c-0.343,0.492-0.088,1.218,0.396,1.499
			c0.545,0.325,1.155,0.097,1.498-0.392c1.455-2.074,2.545-4.421,2.988-6.926c0.356-2.025,0.29-4.078-0.149-6.082
			c-0.501-2.276-1.521-4.509-2.962-6.346c-0.018-0.018-0.03-0.04-0.048-0.058c-0.383-0.461-1.156-0.391-1.552,0
			C74.851,31.666,74.921,32.308,75.303,32.765z"/>
		<path fill="#F7F7F7" d="M27.248,63.614c0,4.201,0,8.402,0,12.604c0,0.119,0,0.237,0,0.356c0,0.958,0.8,1.754,1.758,1.754
			c4.162,0,8.328,0,12.489,0c0.093,0,0.181,0,0.272,0c0.958,0,1.754-0.796,1.754-1.754s-0.796-1.754-1.754-1.754
			c-4.166,0-8.327,0-12.493,0c-0.088,0-0.181,0-0.269,0c0.585,0.585,1.169,1.169,1.754,1.754c0-4.201,0-8.402,0-12.604
			c0-0.119,0-0.237,0-0.356c0-0.953-0.796-1.753-1.754-1.753S27.248,62.661,27.248,63.614z"/>
		<path fill="#F7F7F7" d="M54.23,32.487c-1.067-2.518-2.848-4.662-5.084-6.174c-1.121-0.756-2.36-1.358-3.679-1.767
			c-1.322-0.413-2.725-0.633-4.175-0.633c-1.934,0-3.788,0.396-5.467,1.103c-2.522,1.068-4.662,2.848-6.179,5.089
			c-0.756,1.116-1.357,2.355-1.767,3.679c-0.413,1.318-0.633,2.725-0.633,4.175v26.328c0,0.229,0.009,0.452,0.018,0.677h3.516
			c-0.013-0.225-0.021-0.448-0.021-0.677V37.959c0-1.459,0.294-2.843,0.826-4.101c0.8-1.89,2.136-3.502,3.818-4.636
			c0.84-0.567,1.767-1.016,2.756-1.327c0.988-0.304,2.039-0.471,3.133-0.471c1.459,0,2.839,0.295,4.101,0.826
			c1.885,0.8,3.498,2.136,4.632,3.819c0.566,0.839,1.02,1.767,1.327,2.756c0.308,0.988,0.47,2.039,0.47,3.133v26.328
			c0,1.459-0.294,2.839-0.826,4.1c-0.8,1.886-2.136,3.498-3.818,4.637c-0.84,0.566-1.767,1.015-2.751,1.322
			c-0.989,0.308-2.039,0.475-3.134,0.475c-0.118,0-0.237-0.004-0.352-0.009v3.517c0.114,0,0.233,0,0.352,0
			c1.934,0,3.784-0.392,5.467-1.104c2.522-1.063,4.663-2.844,6.175-5.085c0.756-1.12,1.357-2.355,1.767-3.678
			c0.413-1.318,0.633-2.725,0.633-4.175V37.959C55.334,36.021,54.942,34.171,54.23,32.487z"/>
	</g>
</g>
</svg>
