<?xml version="1.0" encoding="utf-8"?>
<!-- Generator: Adobe Illustrator 16.0.0, SVG Export Plug-In . SVG Version: 6.00 Build 0)  -->
<!DOCTYPE svg PUBLIC "-//W3C//DTD SVG 1.1//EN" "http://www.w3.org/Graphics/SVG/1.1/DTD/svg11.dtd">
<svg version="1.1" id="图层_1" xmlns="http://www.w3.org/2000/svg" xmlns:xlink="http://www.w3.org/1999/xlink" x="0px" y="0px"
	 width="28.347px" height="28.347px" viewBox="0 0 28.347 28.347" enable-background="new 0 0 28.347 28.347" xml:space="preserve">
<path fill="#8B63A8" d="M14.174,0c3.912,0,7.455,1.585,10.021,4.152c2.566,2.565,4.15,6.107,4.15,10.021
	c0,3.913-1.584,7.456-4.15,10.021s-6.109,4.152-10.021,4.152c-3.914,0-7.459-1.587-10.021-4.152C1.588,21.629,0,18.086,0,14.173
	c0-3.914,1.587-7.458,4.152-10.021C6.716,1.585,10.26,0,14.174,0L14.174,0z M14.174,5.086c-2.51,0-4.78,1.015-6.426,2.661
	c-1.645,1.644-2.663,3.916-2.663,6.426c0,0.116,0.002,0.232,0.009,0.347h0.969l0,0h1.334v-0.696H6.063
	c0.048-1.226,0.373-2.381,0.91-3.409l1.157,0.67l0.349-0.604L7.322,9.813C7.641,9.313,8.014,8.849,8.431,8.43
	c0.421-0.419,0.884-0.792,1.384-1.111l0.67,1.159l0.604-0.349l-0.67-1.159c1.024-0.537,2.183-0.86,3.408-0.912v1.336h0.694V6.059
	c1.227,0.052,2.379,0.375,3.411,0.912l-0.67,1.159l0.602,0.349l0.67-1.159c0.5,0.319,0.965,0.692,1.383,1.111
	s0.791,0.882,1.109,1.383l-1.156,0.671l0.346,0.602l1.162-0.67c0.535,1.028,0.857,2.183,0.91,3.409h-1.336v0.696h1.336h0.402h0.566
	c0.004-0.115,0.004-0.231,0.004-0.347c0-2.51-1.016-4.782-2.658-6.426C18.955,6.101,16.686,5.086,14.174,5.086L14.174,5.086z
	 M21.287,17.447h0.479v-1.004h0.992v-0.398h-0.992v-0.563h1.148v-0.399h-1.627V17.447L21.287,17.447z M5.371,17.447h1.795v-0.398
	H5.849v-0.641h1.183v-0.4H5.849v-0.525h1.273v-0.399H5.371V17.447L5.371,17.447z M12.292,6.612l0.978,5.583
	c-0.749,0.342-1.27,1.1-1.27,1.979c0,1.143,0.88,2.077,1.999,2.167l0.177,1.008l1.253-0.254l-0.23-1.003
	c0.683-0.365,1.147-1.087,1.147-1.917c0-1.176-0.93-2.131-2.096-2.172l-1.275-5.527L12.292,6.612L12.292,6.612z M22.146,6.201
	c-2.041-2.039-4.859-3.301-7.973-3.301S8.243,4.162,6.201,6.201C4.162,8.242,2.9,11.06,2.9,14.173c0,3.114,1.262,5.931,3.301,7.971
	c2.042,2.04,4.859,3.301,7.973,3.301s5.932-1.261,7.973-3.301s3.301-4.857,3.301-7.971C25.447,11.06,24.188,8.242,22.146,6.201z"/>
</svg>
