<?xml version="1.0" encoding="utf-8"?>
<!-- Generator: Adobe Illustrator 16.0.0, SVG Export Plug-In . SVG Version: 6.00 Build 0)  -->
<!DOCTYPE svg PUBLIC "-//W3C//DTD SVG 1.1//EN" "http://www.w3.org/Graphics/SVG/1.1/DTD/svg11.dtd">
<svg version="1.1" id="图层_1" xmlns="http://www.w3.org/2000/svg" xmlns:xlink="http://www.w3.org/1999/xlink" x="0px" y="0px"
	 width="28.347px" height="28.347px" viewBox="0 0 28.347 28.347" enable-background="new 0 0 28.347 28.347" xml:space="preserve">
<path fill="#453A59" d="M6.626,0C2.976,0,0,2.942,0,6.626c0,3.65,2.976,6.627,6.626,6.627c3.649,0,6.627-2.977,6.627-6.627
	C13.253,2.942,10.311,0,6.626,0z M6.626,11.375c-2.622,0-4.784-2.126-4.784-4.785c0-2.621,2.126-4.783,4.784-4.783
	c2.658,0,4.782,2.125,4.782,4.783C11.408,9.249,9.284,11.375,6.626,11.375z M21.721,13.253c3.648,0,6.626-2.977,6.626-6.627
	C28.347,2.977,25.369,0,21.721,0c-3.65,0-6.627,2.977-6.627,6.625C15.093,10.276,18.035,13.253,21.721,13.253z M21.721,1.843
	c2.622,0,4.783,2.126,4.783,4.783c0,2.623-2.126,4.784-4.783,4.784c-2.658,0-4.784-2.126-4.784-4.784
	C16.937,3.969,19.063,1.843,21.721,1.843z M6.626,15.096C2.976,15.096,0,18.071,0,21.721c0,3.65,2.976,6.625,6.626,6.625
	c3.649,0,6.627-2.975,6.627-6.625C13.253,18.071,10.311,15.096,6.626,15.096z M6.626,26.469c-2.622,0-4.784-2.127-4.784-4.783
	c0-2.657,2.126-4.783,4.784-4.783c2.658,0,4.782,2.126,4.782,4.783C11.408,24.342,9.284,26.469,6.626,26.469z M15.093,21.721
	c0,3.65,2.977,6.625,6.627,6.625c3.648,0,6.626-2.975,6.626-6.625c0-3.649-2.978-6.625-6.626-6.625
	C18.035,15.096,15.093,18.071,15.093,21.721z"/>
</svg>
