<?xml version="1.0" encoding="utf-8"?>
<!-- Generator: Adobe Illustrator 16.0.0, SVG Export Plug-In . SVG Version: 6.00 Build 0)  -->
<!DOCTYPE svg PUBLIC "-//W3C//DTD SVG 1.1//EN" "http://www.w3.org/Graphics/SVG/1.1/DTD/svg11.dtd">
<svg version="1.1" id="图层_1" xmlns="http://www.w3.org/2000/svg" xmlns:xlink="http://www.w3.org/1999/xlink" x="0px" y="0px"
	 width="28.347px" height="28.347px" viewBox="0 0 28.347 28.347" enable-background="new 0 0 28.347 28.347" xml:space="preserve">
<g>
	<path fill="#453A59" d="M14.173,8.027c-4.432,0-8.025,3.593-8.025,8.025c0,4.432,3.593,8.025,8.025,8.025
		c4.432,0,8.025-3.594,8.025-8.025C22.198,11.62,18.605,8.027,14.173,8.027z M13.463,19.725l-2.297,1.979l-0.002-0.003
		c-0.084,0.072-0.193,0.115-0.313,0.115c-0.265,0-0.481-0.216-0.481-0.481c0-0.161,0.079-0.304,0.201-0.392l1.928-1.661v-6.401
		l-1.927-1.379v-0.001c-0.122-0.087-0.202-0.23-0.202-0.392c0-0.266,0.216-0.481,0.481-0.481c0.106,0,0.202,0.034,0.281,0.09
		l0.001,0l2.331,1.668V19.725z M17.762,11.502l-1.928,1.379v6.401l1.93,1.661c0.121,0.088,0.199,0.23,0.199,0.392
		c0,0.266-0.216,0.481-0.48,0.481c-0.121,0-0.229-0.043-0.313-0.115l-0.002,0.003l-2.297-1.979v-7.338l2.331-1.668v0
		c0.078-0.057,0.176-0.09,0.281-0.09c0.265,0,0.48,0.216,0.48,0.481C17.963,11.271,17.885,11.414,17.762,11.502L17.762,11.502z"/>
	<path fill="#453A59" d="M21.166,9.143c2.524,0,4.57-2.046,4.57-4.571C25.736,2.047,23.69,0,21.166,0
		c-2.523,0-4.572,2.047-4.572,4.571C16.594,7.096,18.643,9.143,21.166,9.143z M20.627,1.14h1.076v3.195l2.229,2.047l-0.727,0.793
		l-2.578-2.367V1.14z"/>
	<path fill="#453A59" d="M24.912,10.059L24.9,10.064c-0.08-0.197-0.271-0.336-0.495-0.336c-0.297,0-0.538,0.241-0.538,0.538
		c0,0.087,0.025,0.167,0.063,0.241v0c0.216,0.38,0.408,0.773,0.582,1.178c0.583,1.382,0.881,2.852,0.881,4.367
		c0,1.515-0.298,2.983-0.881,4.366c-0.566,1.336-1.375,2.536-2.405,3.566c-1.03,1.031-2.231,1.84-3.567,2.404
		c-1.381,0.585-2.851,0.882-4.366,0.882s-2.984-0.297-4.366-0.882c-1.337-0.564-2.537-1.373-3.567-2.404
		c-1.03-1.03-1.839-2.23-2.405-3.566c-0.585-1.383-0.881-2.852-0.881-4.366c0-1.515,0.296-2.985,0.881-4.367
		C4.401,10.349,5.21,9.149,6.24,8.118c1.03-1.03,2.23-1.839,3.567-2.405c1.382-0.584,2.851-0.881,4.366-0.881
		c0.083,0,0.167,0.001,0.251,0.003V4.83c0.293-0.003,0.533-0.241,0.533-0.536c0-0.297-0.241-0.538-0.537-0.538
		c-0.004,0-0.007,0.002-0.012,0.003c-0.079-0.001-0.157-0.003-0.235-0.003c-6.79,0-12.295,5.505-12.295,12.295
		c0,6.79,5.505,12.295,12.295,12.295c6.79,0,12.295-5.505,12.295-12.295C26.469,13.875,25.904,11.832,24.912,10.059z"/>
</g>
</svg>
