<?xml version="1.0" encoding="utf-8"?>
<!-- Generator: Adobe Illustrator 16.0.0, SVG Export Plug-In . SVG Version: 6.00 Build 0)  -->
<!DOCTYPE svg PUBLIC "-//W3C//DTD SVG 1.1//EN" "http://www.w3.org/Graphics/SVG/1.1/DTD/svg11.dtd">
<svg version="1.1" id="图层_1" xmlns="http://www.w3.org/2000/svg" xmlns:xlink="http://www.w3.org/1999/xlink" x="0px" y="0px"
	 width="28.347px" height="28.347px" viewBox="0 0 28.347 28.347" enable-background="new 0 0 28.347 28.347" xml:space="preserve">
<g>
	<path fill="#453A59" d="M16.943,24.43l-5.8,0.877c-0.183,0.027-0.329,0.17-0.36,0.352c-0.033,0.184,0.055,0.367,0.218,0.457
		l2.042,1.113v0.686c0,0.238,0.192,0.434,0.432,0.434h1.875c0.238,0,0.431-0.195,0.431-0.434v-0.941
		c0-0.238-0.192-0.434-0.431-0.434c-0.238,0-0.43,0.195-0.43,0.434v0.508h-1.015v-0.508c0-0.158-0.084-0.305-0.224-0.381
		l-1.14-0.621l3.47-0.525l-0.164,0.211c-0.145,0.189-0.109,0.461,0.079,0.607c0.187,0.145,0.457,0.109,0.603-0.078l0.82-1.064
		c0.107-0.139,0.119-0.33,0.031-0.482C17.29,24.486,17.117,24.402,16.943,24.43z"/>
	<path fill="#453A59" d="M14.106,4.62c-5.053,0-8.075,4.342-8.075,8.537c0,3.784,1.531,5.149,2.882,6.354
		c1.041,0.928,1.862,1.66,1.862,3.396v0.877c0,0.127,0.056,0.246,0.15,0.328c0.079,0.068,0.18,0.105,0.282,0.105
		c0.021,0,0.042-0.002,0.064-0.006l5.8-0.877c0.209-0.033,0.365-0.213,0.365-0.428c0-1.723,0.814-2.437,1.844-3.338
		c1.291-1.133,2.9-2.542,2.9-6.413C22.182,9.019,19.353,4.62,14.106,4.62z M18.645,17.083c-0.067,0.021-0.135,0.03-0.198,0.03
		c-0.284,0-0.544-0.184-0.636-0.469l-1.107-3.585l-2.251,0.977c-0.169,0.072-0.36,0.072-0.526,0l-2.251-0.977l-1.111,3.585
		c-0.108,0.352-0.482,0.549-0.832,0.438c-0.35-0.108-0.544-0.483-0.437-0.835l1.329-4.292c0.057-0.18,0.188-0.328,0.357-0.409
		c0.17-0.078,0.368-0.08,0.541-0.005l2.665,1.154l2.665-1.154c0.174-0.075,0.373-0.073,0.543,0.005
		c0.17,0.081,0.302,0.229,0.357,0.409l1.328,4.292C19.189,16.6,18.994,16.975,18.645,17.083z"/>
	<path fill="#453A59" d="M14.173,2.42c0.286,0,0.517-0.232,0.517-0.519V0.519C14.69,0.232,14.459,0,14.173,0
		s-0.516,0.231-0.516,0.519v1.382C13.657,2.188,13.888,2.42,14.173,2.42z"/>
	<path fill="#453A59" d="M3.192,12.404H1.813c-0.286,0-0.518,0.233-0.518,0.519c0,0.287,0.232,0.519,0.518,0.519h1.379
		c0.284,0,0.516-0.232,0.516-0.519C3.708,12.637,3.477,12.404,3.192,12.404z"/>
	<path fill="#453A59" d="M26.533,12.404h-1.377c-0.286,0-0.517,0.233-0.517,0.519c0,0.287,0.23,0.519,0.517,0.519h1.377
		c0.285,0,0.518-0.232,0.518-0.519C27.051,12.637,26.818,12.404,26.533,12.404z"/>
	<path fill="#453A59" d="M6.043,5.497c0.101,0.101,0.233,0.152,0.364,0.152c0.133,0,0.264-0.051,0.365-0.152
		c0.203-0.203,0.203-0.532,0.001-0.734L6.304,4.291c-0.203-0.203-0.529-0.203-0.731,0c-0.202,0.203-0.202,0.53,0,0.733L6.043,5.497z
		"/>
	<path fill="#453A59" d="M22.305,20.35c-0.201-0.203-0.529-0.203-0.73,0c-0.202,0.201-0.202,0.529,0,0.732l0.469,0.473
		c0.102,0.102,0.234,0.151,0.365,0.151c0.133,0,0.265-0.05,0.367-0.151c0.199-0.203,0.199-0.531,0-0.734L22.305,20.35z"/>
	<path fill="#453A59" d="M6.043,20.35l-0.47,0.471c-0.202,0.203-0.202,0.531,0,0.734c0.101,0.102,0.232,0.151,0.365,0.151
		c0.133,0,0.266-0.05,0.366-0.151l0.469-0.473c0.201-0.203,0.201-0.531,0-0.732C6.572,20.146,6.245,20.146,6.043,20.35z"/>
	<path fill="#453A59" d="M22.044,4.291l-0.47,0.471c-0.202,0.203-0.202,0.532,0,0.734c0.102,0.101,0.232,0.152,0.365,0.152
		s0.264-0.051,0.365-0.152l0.471-0.472c0.199-0.203,0.199-0.531,0-0.733C22.571,4.088,22.245,4.088,22.044,4.291z"/>
</g>
</svg>
