<?xml version="1.0" encoding="utf-8"?>
<!-- Generator: Adobe Illustrator 16.0.0, SVG Export Plug-In . SVG Version: 6.00 Build 0)  -->
<!DOCTYPE svg PUBLIC "-//W3C//DTD SVG 1.1//EN" "http://www.w3.org/Graphics/SVG/1.1/DTD/svg11.dtd">
<svg version="1.1" id="图层_1" xmlns="http://www.w3.org/2000/svg" xmlns:xlink="http://www.w3.org/1999/xlink" x="0px" y="0px"
	 width="28.347px" height="28.347px" viewBox="0 0 28.347 28.347" enable-background="new 0 0 28.347 28.347" xml:space="preserve">
<g>
	<path fill="#453A59" d="M27.256,13.083h-1.571c-0.222-2.375-1.163-4.54-2.602-6.278l1.112-1.111c0.426-0.426,0.426-1.115,0-1.542
		c-0.426-0.426-1.116-0.426-1.542,0l-1.112,1.112c-1.738-1.439-3.903-2.38-6.278-2.602V1.09c0-0.602-0.488-1.09-1.09-1.09
		c-0.603,0-1.091,0.488-1.091,1.09v1.572c-2.374,0.222-4.54,1.162-6.277,2.602L5.692,4.151c-0.426-0.426-1.116-0.426-1.542,0
		c-0.425,0.427-0.425,1.116,0,1.542l1.112,1.111c-1.439,1.738-2.379,3.903-2.603,6.278H1.089c-0.602,0-1.09,0.488-1.09,1.091
		c0,0.602,0.488,1.09,1.09,1.09H2.66c0.224,2.374,1.163,4.54,2.603,6.277L4.15,22.653c-0.425,0.426-0.425,1.116,0,1.542
		c0.426,0.427,1.116,0.427,1.542,0l1.112-1.113c1.737,1.44,3.903,2.381,6.277,2.602v1.573c0,0.602,0.488,1.09,1.091,1.09
		c0.602,0,1.09-0.488,1.09-1.09v-1.573c2.375-0.221,4.54-1.161,6.278-2.602l1.112,1.113c0.426,0.427,1.116,0.427,1.542,0
		c0.426-0.426,0.426-1.116,0-1.542l-1.112-1.112c1.438-1.737,2.38-3.903,2.602-6.277h1.571c0.604,0,1.092-0.488,1.092-1.09
		C28.348,13.571,27.859,13.083,27.256,13.083L27.256,13.083z M14.173,24.863c-5.904,0-10.69-4.787-10.69-10.689
		c0-5.904,4.786-10.69,10.69-10.69s10.689,4.786,10.689,10.69C24.862,20.076,20.077,24.863,14.173,24.863L14.173,24.863z
		 M14.3,4.835c-0.072-0.002-0.145-0.003-0.218-0.003c-5.175,0-9.372,4.196-9.372,9.372s4.197,9.37,9.372,9.37
		c0.073,0,0.146-0.001,0.218-0.002V4.835L14.3,4.835z M14.3,4.835"/>
</g>
</svg>
