<?xml version="1.0" encoding="utf-8"?>
<!-- Generator: Adobe Illustrator 16.0.4, SVG Export Plug-In . SVG Version: 6.00 Build 0)  -->
<!DOCTYPE svg PUBLIC "-//W3C//DTD SVG 1.1//EN" "http://www.w3.org/Graphics/SVG/1.1/DTD/svg11.dtd">
<svg version="1.1" id="图层_1" xmlns="http://www.w3.org/2000/svg" xmlns:xlink="http://www.w3.org/1999/xlink" x="0px" y="0px"
	 width="100px" height="96px" viewBox="0 0 100 96" enable-background="new 0 0 100 96" xml:space="preserve">
<g>
	<path fill="#21A368" d="M65.469,80.844h-8.446l16.954,9.457c0.76,0.422,1.02,1.354,0.58,2.092l-1.582,2.646
		c-0.439,0.729-1.406,0.984-2.162,0.562l-24.68-13.772c-0.4-0.22-0.659-0.589-0.747-0.984h-1.125l3.111-5.977h17.561
		c15.675,0,28.38-12.032,28.38-26.866c0-11.646-7.822-21.56-18.765-25.286l2.856-5.476C90.307,21.907,99.5,33.913,99.5,48.001
		C99.5,66.14,84.264,80.844,65.469,80.844z M35.067,21.129c-15.671,0-28.38,12.032-28.38,26.872
		c0,13.515,10.547,24.704,24.275,26.584l-2.944,5.643C12.339,77.302,0.5,63.986,0.5,48.001c0-18.141,15.236-32.845,34.031-32.845
		h14.634L32.211,5.7c-0.756-0.422-1.02-1.358-0.58-2.087l1.582-2.65c0.439-0.734,1.406-0.984,2.162-0.562l24.68,13.768
		c0.404,0.22,0.659,0.589,0.752,0.988h1.12l-3.111,5.973H35.067z"/>
	<circle fill="#21A368" cx="76.002" cy="19.964" r="3.098"/>
	<path fill="#21A368" d="M27.852,75.887c0.949-1.406,2.856-1.784,4.254-0.844c1.406,0.94,1.767,2.848,0.817,4.263
		c-0.944,1.406-2.848,1.784-4.254,0.835C27.271,79.2,26.902,77.293,27.852,75.887z"/>
	<ellipse fill="#21A368" cx="61.624" cy="18.136" rx="3.098" ry="2.988"/>
	<rect x="54.676" y="17.811" fill="#21A368" width="7.242" height="3.313"/>
	<path fill="#21A368" d="M41.281,77.847c0,1.652,1.389,2.997,3.103,2.997c1.705,0,3.094-1.345,3.094-2.997s-1.389-2.988-3.094-2.988
		C42.67,74.858,41.281,76.194,41.281,77.847z"/>
	<rect x="44.384" y="74.858" fill="#21A368" width="7.242" height="3.313"/>
	<polyline fill="#21A368" points="28.019,80.229 29.75,80.598 29.996,79.728 27.518,78.479 27.017,78.655 	"/>
</g>
</svg>
