<?xml version="1.0" encoding="utf-8"?>
<!-- Generator: Adobe Illustrator 16.0.4, SVG Export Plug-In . SVG Version: 6.00 Build 0)  -->
<!DOCTYPE svg PUBLIC "-//W3C//DTD SVG 1.1//EN" "http://www.w3.org/Graphics/SVG/1.1/DTD/svg11.dtd">
<svg version="1.1" id="图层_1" xmlns="http://www.w3.org/2000/svg" xmlns:xlink="http://www.w3.org/1999/xlink" x="0px" y="0px"
	 width="100px" height="100px" viewBox="0 0 100 100" enable-background="new 0 0 100 100" xml:space="preserve">
<g>
	<path fill="#3DB481" d="M94.681,20.924h-15.31V4.308H20.644v16.617H5.319c-2.663,0-4.819,2.147-4.819,4.799v40.759h20.144v6.948
		l22.353,22.262h36.374V66.718H99.5V25.724C99.5,23.071,97.344,20.924,94.681,20.924L94.681,20.924z M26.318,9.959h47.376v10.965
		H26.318V9.959L26.318,9.959z M84.979,58.87h-5.607V47.697h-5.677V90.04H50.422c-8.429,0-4.368-19.896-4.368-19.896
		s-19.485,4.721-19.735-4.174V47.697h-5.674v10.941h-5.622v-19.04h69.957V58.87L84.979,58.87L84.979,58.87z M89.026,32.694
		c-2.124,0-3.854-1.723-3.854-3.835c0-2.119,1.73-3.843,3.854-3.843c2.13,0,3.854,1.724,3.854,3.843
		C92.881,30.972,91.156,32.694,89.026,32.694L89.026,32.694z M66.976,48.478h-32.61v5.652h32.61V48.478L66.976,48.478z
		 M34.365,65.206h32.61v-5.645h-32.61V65.206L34.365,65.206z M34.365,65.206"/>
</g>
</svg>
