<?xml version="1.0" encoding="utf-8"?>
<!-- Generator: Adobe Illustrator 16.0.4, SVG Export Plug-In . SVG Version: 6.00 Build 0)  -->
<!DOCTYPE svg PUBLIC "-//W3C//DTD SVG 1.1//EN" "http://www.w3.org/Graphics/SVG/1.1/DTD/svg11.dtd">
<svg version="1.1" id="图层_1" xmlns="http://www.w3.org/2000/svg" xmlns:xlink="http://www.w3.org/1999/xlink" x="0px" y="0px"
	 width="100px" height="80px" viewBox="0 0 100 80" enable-background="new 0 0 100 80" xml:space="preserve">
<g>
	<path fill="#21A368" d="M50.427,32.819l-3.17-4.67c0.345-0.464,0.688-0.932,1.051-1.404c11.146-14.814,26.229-15.702,36.656-13.972
		l-8.157-8.171c-0.561-0.565-0.561-1.479,0-2.043l2.048-2.048c0.561-0.565,1.475-0.565,2.04,0l15.547,15.578
		c0.415,0.181,0.636,0.291,0.636,0.291v0.94v0.018V22.3C71.218,12.191,58.09,22.547,50.427,32.819z M96.936,57.845v4.931v0.013v0.94
		c0,0-0.221,0.11-0.636,0.287L80.775,79.492c-0.562,0.561-1.475,0.561-2.035,0l-2.04-2.03c-0.564-0.561-0.564-1.471,0-2.031
		l8.145-8.122C74.432,69.03,59.37,68.147,48.236,53.43C29.476,28.621,28.84,18.552,2.486,18.124v-5.889
		c0,0,21.847-6.225,41.323,25.012C50.144,47.399,61.7,71.551,96.936,57.845z M33.634,47.369l3.452,5.081
		c-17.463,20.659-34.6,15.759-34.6,15.759v-5.924C19.853,61.998,26.068,57.513,33.634,47.369z"/>
	<path fill="#21A368" d="M5.268,15.145c0,1.642-1.068,2.971-2.384,2.971S0.5,16.786,0.5,15.145c0-1.638,1.068-2.971,2.384-2.971
		S5.268,13.507,5.268,15.145z"/>
	<path fill="#21A368" d="M99.435,19.021c0.291,1.655-0.415,3.16-1.58,3.358c-1.157,0.203-2.331-0.976-2.618-2.631
		s0.419-3.16,1.576-3.359C97.978,16.187,99.147,17.364,99.435,19.021z"/>
	<path fill="#21A368" d="M99.179,61.146c-0.292,1.615-1.466,2.759-2.622,2.547c-1.161-0.208-1.863-1.687-1.572-3.307
		c0.292-1.615,1.466-2.759,2.622-2.547C98.764,58.047,99.47,59.526,99.179,61.146z"/>
	<ellipse fill="#21A368" cx="2.884" cy="65.212" rx="2.384" ry="2.971"/>
</g>
</svg>
