<?xml version="1.0" encoding="utf-8"?>
<!-- Generator: Adobe Illustrator 16.0.4, SVG Export Plug-In . SVG Version: 6.00 Build 0)  -->
<!DOCTYPE svg PUBLIC "-//W3C//DTD SVG 1.1//EN" "http://www.w3.org/Graphics/SVG/1.1/DTD/svg11.dtd">
<svg version="1.1" id="图层_1" xmlns="http://www.w3.org/2000/svg" xmlns:xlink="http://www.w3.org/1999/xlink" x="0px" y="0px"
	 width="40px" height="40px" viewBox="0 0 40 40" enable-background="new 0 0 40 40" xml:space="preserve">
<g>
	<path fill="#FFFFFF" d="M9.519,19.21c7.165-3.309,14.328-6.618,21.493-9.927c-0.251-0.184-0.503-0.367-0.754-0.549
		c-2.827,7.425-5.654,14.85-8.481,22.275c0.324-0.008,0.647-0.017,0.971-0.025c-0.696-1.581-1.393-3.164-2.088-4.745
		c-0.427-0.971-0.854-1.94-1.28-2.91c-0.163-0.37-0.313-1.03-0.622-1.324c-0.1-0.093-0.234-0.167-0.384-0.229
		c-0.272-0.114-0.593-0.188-0.819-0.277c-1.098-0.43-2.195-0.859-3.294-1.29c-1.587-0.622-3.176-1.244-4.764-1.866
		c-0.597-0.234-1.088,0.646-0.485,0.882c3.046,1.193,6.092,2.387,9.138,3.58c-0.245-0.097-0.274-0.412-0.088,0.013
		c0.157,0.357,0.313,0.713,0.471,1.069c0.441,1.003,0.884,2.008,1.325,3.012c0.643,1.459,1.284,2.92,1.927,4.38
		c0.208,0.472,0.787,0.456,0.971-0.025c2.826-7.425,5.653-14.851,8.48-22.276c0.179-0.47-0.412-0.706-0.753-0.549
		c-7.165,3.31-14.329,6.618-21.493,9.928C8.4,18.627,8.936,19.479,9.519,19.21z"/>
	<path fill="#FFFFFF" d="M30.077,8.824c-4.049,4.35-8.098,8.7-12.146,13.05c-0.444,0.478,0.289,1.174,0.734,0.696
		c4.048-4.35,8.097-8.7,12.146-13.05C31.255,9.043,30.522,8.346,30.077,8.824z"/>
</g>
</svg>
