<?xml version="1.0" encoding="utf-8"?>
<!-- Generator: Adobe Illustrator 16.0.0, SVG Export Plug-In . SVG Version: 6.00 Build 0)  -->
<!DOCTYPE svg PUBLIC "-//W3C//DTD SVG 1.1//EN" "http://www.w3.org/Graphics/SVG/1.1/DTD/svg11.dtd">
<svg version="1.1" id="图层_1" xmlns="http://www.w3.org/2000/svg" xmlns:xlink="http://www.w3.org/1999/xlink" x="0px" y="0px"
	 width="28.347px" height="28.347px" viewBox="0 0 28.347 28.347" enable-background="new 0 0 28.347 28.347" xml:space="preserve">
<g>
	<path fill="#453A59" d="M14.173,3.245c-6.036,0-10.929,4.895-10.929,10.93c0,6.036,4.895,10.931,10.929,10.931
		c6.036,0,10.931-4.896,10.931-10.931C25.104,8.138,20.209,3.245,14.173,3.245L14.173,3.245z M22.585,14.938
		c0,0.34-0.269,0.607-0.604,0.607h-7.912v0.613c0,0.332-0.272,0.604-0.607,0.604c-0.34,0-0.607-0.269-0.607-0.604v-0.613h-0.612
		c-0.332,0-0.604-0.271-0.604-0.607c0-0.338,0.269-0.608,0.604-0.608h0.612V6.419c0-0.333,0.271-0.605,0.607-0.605
		c0.339,0,0.607,0.27,0.607,0.605v7.911h7.912C22.313,14.33,22.585,14.602,22.585,14.938L22.585,14.938z M14.173,0
		C6.348,0,0.001,6.346,0.001,14.171c0,7.825,6.345,14.176,14.172,14.176c7.829,0,14.173-6.348,14.173-14.173
		C28.346,6.349,21.998,0,14.173,0L14.173,0z M23.508,23.508c-1.214,1.213-2.623,2.164-4.196,2.83
		c-1.624,0.688-3.354,1.035-5.139,1.035s-3.511-0.348-5.139-1.035c-1.572-0.666-2.984-1.617-4.195-2.83
		c-1.213-1.213-2.163-2.623-2.828-4.194c-0.688-1.625-1.037-3.354-1.037-5.139s0.349-3.511,1.037-5.139
		C2.676,7.464,3.626,6.051,4.839,4.84c1.215-1.21,2.623-2.164,4.195-2.829c1.628-0.688,3.354-1.04,5.139-1.04
		s3.511,0.349,5.139,1.036c1.573,0.666,2.986,1.616,4.196,2.829c1.208,1.214,2.163,2.623,2.829,4.195
		c0.687,1.628,1.035,3.359,1.035,5.142c0,1.785-0.349,3.511-1.035,5.139C25.671,20.885,24.72,22.297,23.508,23.508L23.508,23.508z"
		/>
</g>
</svg>
